<?xml version="1.0" encoding="utf-8" ?>
<svg baseProfile="full" height="30px" version="1.1" width="500px" xmlns="http://www.w3.org/2000/svg" xmlns:ev="http://www.w3.org/2001/xml-events" xmlns:xlink="http://www.w3.org/1999/xlink"><defs /><style type="text/css"><![CDATA[svg {
  background-color: none;
}
.tile {
  fill: #ccc;
}
rect.waveform {
  fill: white;
  stroke-width: 0;
}
path.waveform {
  fill: none;
  stroke: black;
  stroke-width: 2;
}]]></style><path class="waveform" d="M 0 15 L 0.0 14.4959656014 L 1.66666666667 14.7412145663 L 3.33333333333 1.27720564816 L 5.0 10.7471599958 L 6.66666666667 14.5843507803 L 8.33333333333 12.3165941183 L 10.0 15.7508758892 L 11.6666666667 13.5738931946 L 13.3333333333 8.99458541246 L 15.0 11.2854336978 L 16.6666666667 15.7046926425 L 18.3333333333 12.0745302049 L 20.0 14.8741904661 L 21.6666666667 14.7858052872 L 23.3333333333 12.9153837987 L 25.0 12.7847966875 L 26.6666666667 10.8809321584 L 28.3333333333 10.2741798492 L 30.0 14.4465973033 L 31.6666666667 12.1653041724 L 33.3333333333 13.0181017093 L 35.0 12.4280709205 L 36.6666666667 12.4989383162 L 38.3333333333 12.1406200234 L 40.0 11.7568213186 L 41.6666666667 11.0823866653 L 43.3333333333 14.9378914959 L 45.0 7.41639239834 L 46.6666666667 15.0159252575 L 48.3333333333 9.37519906572 L 50.0 12.0633825247 L 51.6666666667 14.5962947234 L 53.3333333333 12.0793077821 L 55.0 10.8339526489 L 56.6666666667 14.9116148211 L 58.3333333333 12.1605265952 L 60.0 14.8861344092 L 61.6666666667 13.9983013059 L 63.3333333333 12.1183246629 L 65.0 11.3332094702 L 66.6666666667 15.1608451003 L 68.3333333333 14.5883320947 L 70.0 13.0985242595 L 71.6666666667 14.2626605797 L 73.3333333333 14.8829493577 L 75.0 15.4984605584 L 76.6666666667 8.84568425523 L 78.3333333333 10.5457054889 L 80.0 14.8678203631 L 81.6666666667 14.7985454932 L 83.3333333333 14.8781717804 L 85.0 9.99628410659 L 86.6666666667 15.0533496125 L 88.3333333333 15.4084828538 L 90.0 12.230597728 L 91.6666666667 15.1258095339 L 93.3333333333 14.3008811976 L 95.0 16.0247903174 L 96.6666666667 12.167692961 L 98.3333333333 9.52808153732 L 100.0 11.4024843402 L 101.666666667 10.6762926001 L 103.333333333 13.0642849559 L 105.0 14.7826202357 L 106.666666667 13.8788618749 L 108.333333333 15.8336872279 L 110.0 14.4999469158 L 111.666666667 14.9458541246 L 113.333333333 14.0054676717 L 115.0 10.8347489118 L 116.666666667 9.82429132604 L 118.333333333 14.3908589022 L 120.0 3.50196411509 L 121.666666667 14.5437413738 L 123.333333333 12.7163180805 L 125.0 9.887196093 L 126.666666667 12.4885868988 L 128.333333333 10.8642106381 L 130.0 14.8773755176 L 131.666666667 14.8582652086 L 133.333333333 14.8439324769 L 135.0 9.7343136214 L 136.666666667 13.4751565984 L 138.333333333 12.5634356089 L 140.0 9.76218282196 L 141.666666667 14.674328485 L 143.333333333 9.78129313091 L 145.0 12.4049792972 L 146.666666667 15.0581271897 L 148.333333333 13.7275719291 L 150.0 11.0306295785 L 151.666666667 11.6501220936 L 153.333333333 12.3078352267 L 155.0 15.8265208621 L 156.666666667 14.6281452383 L 158.333333333 10.8650069009 L 160.0 15.0023887886 L 161.666666667 12.5522879287 L 163.333333333 14.899670878 L 165.0 7.36861662597 L 166.666666667 9.83225395477 L 168.333333333 15.4068903281 L 170.0 10.6372757193 L 171.666666667 9.73590614715 L 173.333333333 11.409650706 L 175.0 18.8483384648 L 176.666666667 11.9726085572 L 178.333333333 14.3948402166 L 180.0 9.79084828538 L 181.666666667 0.0 L 183.333333333 15.037424355 L 185.0 11.4454825353 L 186.666666667 11.8069858796 L 188.333333333 15.3519481898 L 190.0 15.495275507 L 191.666666667 13.1877057012 L 193.333333333 12.136638709 L 195.0 12.6828750398 L 196.666666667 14.8367661111 L 198.333333333 12.0896591995 L 200.0 11.1699755813 L 201.666666667 11.9893300775 L 203.333333333 14.9339101815 L 205.0 14.4832253955 L 206.666666667 12.4790317443 L 208.333333333 12.1135470857 L 210.0 9.80995859433 L 211.666666667 14.8566726829 L 213.333333333 11.2073999363 L 215.0 12.6279329016 L 216.666666667 7.99129419259 L 218.333333333 10.2678097463 L 220.0 12.4360335492 L 221.666666667 11.848391549 L 223.333333333 15.0151289946 L 225.0 14.504724493 L 226.666666667 12.6271366387 L 228.333333333 11.6994903918 L 230.0 12.650228262 L 231.666666667 12.4885868988 L 233.333333333 10.6412570337 L 235.0 14.6950313197 L 236.666666667 15.1051066992 L 238.333333333 9.60770782461 L 240.0 11.2750822805 L 241.666666667 12.2385603567 L 243.333333333 9.3552924939 L 245.0 9.68892663765 L 246.666666667 14.9243550271 L 248.333333333 17.481155112 L 250.0 12.6948189829 L 251.666666667 13.0937466822 L 253.333333333 14.3988215309 L 255.0 14.5095020703 L 256.666666667 14.7061789999 L 258.333333333 12.2576706657 L 260.0 13.2928124005 L 261.666666667 11.9391655165 L 263.333333333 10.9199490392 L 265.0 12.9520118909 L 266.666666667 9.50578617688 L 268.333333333 14.8471175284 L 270.0 12.6558021021 L 271.666666667 15.7046926425 L 273.333333333 12.2473192483 L 275.0 12.149378915 L 276.666666667 12.1987472131 L 278.333333333 12.1461938635 L 280.0 9.99389531797 L 281.666666667 11.8452064975 L 283.333333333 14.8718016775 L 285.0 15.2866546342 L 286.666666667 14.8503025799 L 288.333333333 13.7132391974 L 290.0 15.914906041 L 291.666666667 14.7579360866 L 293.333333333 14.8940970379 L 295.0 12.6725236225 L 296.666666667 9.69051916339 L 298.333333333 12.1127508228 L 300.0 15.8512050111 L 301.666666667 12.6454506848 L 303.333333333 15.1409385285 L 305.0 13.0252680752 L 306.666666667 11.7926531479 L 308.333333333 14.9673532222 L 310.0 14.2961036203 L 311.666666667 14.9920373713 L 313.333333333 11.5298863998 L 315.0 13.715627986 L 316.666666667 14.7324556747 L 318.333333333 13.1088756768 L 320.0 15.7389319461 L 321.666666667 14.949835439 L 323.333333333 14.7850090243 L 325.0 9.90630640195 L 326.666666667 12.0036628092 L 328.333333333 15.056534664 L 330.0 12.8803482323 L 331.666666667 12.8461089288 L 333.333333333 8.38862936617 L 335.0 12.3094277524 L 336.666666667 14.586739569 L 338.333333333 15.1528824716 L 340.0 14.5947021977 L 341.666666667 10.2367554942 L 343.333333333 12.4806242701 L 345.0 14.8423399512 L 346.666666667 9.25177832042 L 348.333333333 14.1296846799 L 350.0 12.3189829069 L 351.666666667 13.5293024737 L 353.333333333 11.9805711859 L 355.0 12.0665675762 L 356.666666667 14.0755388045 L 358.333333333 15.2922284744 L 360.0 14.4458010405 L 361.666666667 11.5259050855 L 363.333333333 15.3830024419 L 365.0 12.1039919312 L 366.666666667 15.0692748699 L 368.333333333 11.8284849772 L 370.0 14.6751247479 L 371.666666667 11.2742860176 L 373.333333333 11.9853487631 L 375.0 15.8249283363 L 376.666666667 12.1557490179 L 378.333333333 11.8850196412 L 380.0 16.0239940546 L 381.666666667 13.3174965495 L 383.333333333 15.3455780868 L 385.0 8.53354920905 L 386.666666667 14.987259794 L 388.333333333 14.8455250027 L 390.0 14.874986729 L 391.666666667 14.8041193333 L 393.333333333 15.2970060516 L 395.0 11.2774710691 L 396.666666667 11.3730226139 L 398.333333333 9.2199278055 L 400.0 15.2874508971 L 401.666666667 14.9140036097 L 403.333333333 9.9636373288 L 405.0 15.0207028347 L 406.666666667 10.4270623208 L 408.333333333 10.9669285487 L 410.0 14.9147998726 L 411.666666667 11.8022083024 L 413.333333333 14.8741904661 L 415.0 14.8741904661 L 416.666666667 14.9649644336 L 418.333333333 12.7975368935 L 420.0 12.1509714407 L 421.666666667 12.6104151184 L 423.333333333 14.0245779807 L 425.0 13.7275719291 L 426.666666667 12.9838624058 L 428.333333333 14.7714725555 L 430.0 14.298492409 L 431.666666667 11.1365325406 L 433.333333333 13.5874296634 L 435.0 14.5023357044 L 436.666666667 9.49941607389 L 438.333333333 14.6695509077 L 440.0 13.527709948 L 441.666666667 14.9840747425 L 443.333333333 12.4304597091 L 445.0 16.0128463743 L 446.666666667 11.7998195137 L 448.333333333 14.9992037371 L 450.0 11.1580316382 L 451.666666667 10.8291750717 L 453.333333333 15.0804225502 L 455.0 14.8025268075 L 456.666666667 9.37519906572 L 458.333333333 14.4378384117 L 460.0 14.8503025799 L 461.666666667 9.78925575963 L 463.333333333 14.7380295148 L 465.0 12.2019322646 L 466.666666667 14.8375623739 L 468.333333333 10.0902431256 L 470.0 16.9006794777 L 471.666666667 14.1304809428 L 473.333333333 14.792971653 L 475.0 12.5522879287 L 476.666666667 14.9394840217 L 478.333333333 12.1605265952 L 480.0 14.9076335067 L 481.666666667 12.4089606115 L 483.333333333 16.0120501115 L 485.0 15.0979403334 L 486.666666667 13.3262554411 L 488.333333333 15.8910181548 L 490.0 15.062904767 L 491.666666667 15.4013164879 L 493.333333333 15.0382206179 L 495.0 14.8192483278 L 496.666666667 11.8252999257 L 498.333333333 12.6271366387" /></svg>