<?xml version="1.0" encoding="utf-8" ?>
<svg baseProfile="full" height="30px" version="1.1" width="500px" xmlns="http://www.w3.org/2000/svg" xmlns:ev="http://www.w3.org/2001/xml-events" xmlns:xlink="http://www.w3.org/1999/xlink"><defs /><style type="text/css"><![CDATA[svg {
  background-color: none;
}
.tile {
  fill: #ccc;
}
rect.waveform {
  fill: white;
  stroke-width: 0;
}
path.waveform {
  fill: none;
  stroke: black;
  stroke-width: 2;
}]]></style><path class="waveform" d="M 0 15 L 0.0 15.0 L 1.66666666667 28.4677253042 L 3.33333333333 28.4682408744 L 5.0 28.4656630233 L 6.66666666667 28.4677253042 L 8.33333333333 28.4656630233 L 10.0 28.4656630233 L 11.6666666667 28.4677253042 L 13.3333333333 28.467209734 L 15.0 25.5609404001 L 16.6666666667 24.7679934007 L 18.3333333333 19.616931326 L 20.0 16.9895854815 L 21.6666666667 14.9994844298 L 23.3333333333 12.2339657661 L 25.0 11.2646937513 L 26.6666666667 17.7634563828 L 28.3333333333 13.2217983089 L 30.0 15.8697669623 L 31.6666666667 16.4920602186 L 33.3333333333 14.0688801815 L 35.0 18.817797484 L 36.6666666667 18.5641369355 L 38.3333333333 23.7249948443 L 40.0 18.5249535987 L 41.6666666667 16.3043926583 L 43.3333333333 7.81810682615 L 45.0 9.19777273665 L 46.6666666667 4.69426685915 L 48.3333333333 11.3193441947 L 50.0 11.5925964116 L 51.6666666667 12.3607960404 L 53.3333333333 13.0207259229 L 55.0 13.282635595 L 56.6666666667 13.1578676016 L 58.3333333333 28.4656630233 L 60.0 28.4666941637 L 61.6666666667 28.462569602 L 63.3333333333 28.4641163126 L 65.0 28.4656630233 L 66.6666666667 28.467209734 L 68.3333333333 28.4677253042 L 70.0 28.4697875851 L 71.6666666667 25.829552485 L 73.3333333333 24.8974015261 L 75.0 20.9177149928 L 76.6666666667 16.717364405 L 78.3333333333 15.009280264 L 80.0 12.4902041658 L 81.6666666667 10.3851309548 L 83.3333333333 17.3731697257 L 85.0 15.0123736853 L 86.6666666667 14.240565065 L 88.3333333333 16.1816869458 L 90.0 14.2013817282 L 91.6666666667 21.8050113425 L 93.3333333333 19.3534749433 L 95.0 22.8557434523 L 96.6666666667 17.3736852959 L 98.3333333333 16.327077748 L 100.0 9.80305217571 L 101.666666667 8.80129923696 L 103.333333333 4.57104557641 L 105.0 11.5595999175 L 106.666666667 11.7142709837 L 108.333333333 11.8478036709 L 110.0 12.474221489 L 111.666666667 13.1506496185 L 113.333333333 12.7572695401 L 115.0 28.4630851722 L 116.666666667 28.4661785935 L 118.333333333 28.4661785935 L 120.0 28.462569602 L 121.666666667 30.0 L 123.333333333 28.4651474531 L 125.0 15.0010311404 L 126.666666667 28.5100020623 L 128.333333333 28.4661785935 L 130.0 28.4306042483 L 131.666666667 25.4243142916 L 133.333333333 14.9994844298 L 135.0 21.885440297 L 136.666666667 17.1128067643 L 138.333333333 15.5372241699 L 140.0 13.2888224376 L 141.666666667 10.7800577439 L 143.333333333 12.7294287482 L 145.0 17.6716848835 L 146.666666667 14.6901422974 L 148.333333333 15.9971128068 L 150.0 15.2062280883 L 151.666666667 13.2568570839 L 153.333333333 17.5154671066 L 155.0 22.1236337389 L 156.666666667 15.0 L 158.333333333 17.2473705919 L 160.0 17.5082491235 L 161.666666667 16.1883893586 L 163.333333333 6.26933388327 L 165.0 8.82140647556 L 166.666666667 4.57001443597 L 168.333333333 11.5740358837 L 170.0 13.0800164982 L 171.666666667 11.4338007837 L 173.333333333 12.0844504021 L 175.0 12.3417199423 L 176.666666667 13.0269127655 L 178.333333333 13.0196947824 L 180.0 27.9624664879 L 181.666666667 28.4661785935 L 183.333333333 15.0 L 185.0 28.4656630233 L 186.666666667 28.4646318829 L 188.333333333 28.4661785935 L 190.0 28.4661785935 L 191.666666667 28.4692720148 L 193.333333333 28.4677253042 L 195.0 24.9840173232 L 196.666666667 24.5009280264 L 198.333333333 18.1583831718 L 200.0 16.5848628583 L 201.666666667 14.7447927408 L 203.333333333 12.1030109301 L 205.0 13.7837698495 L 206.666666667 18.3161476593 L 208.333333333 14.7416993194 L 210.0 13.6780779542 L 211.666666667 11.0337182924 L 213.333333333 13.2960404207 L 215.0 22.8124355537 L 216.666666667 19.8834811301 L 218.333333333 21.6070323778 L 220.0 17.6263147041 L 221.666666667 21.6683852341 L 223.333333333 15.5124767993 L 225.0 7.2081872551 L 226.666666667 5.83986388946 L 228.333333333 11.3049082285 L 230.0 11.0306248711 L 231.666666667 11.6998350175 L 233.333333333 12.3613116106 L 235.0 13.2434522582 L 236.666666667 13.0336151784 L 238.333333333 28.184677253 L 240.0 28.4677253042 L 241.666666667 28.4661785935 L 243.333333333 28.467209734 L 245.0 28.4636007424 L 246.666666667 28.4656630233 L 248.333333333 28.4682408744 L 250.0 28.4651474531 L 251.666666667 26.75242318 L 253.333333333 26.088884306 L 255.0 22.2690245411 L 256.666666667 17.1117756238 L 258.333333333 15.7970715611 L 260.0 13.553825531 L 261.666666667 10.8919364817 L 263.333333333 12.4963910085 L 265.0 15.8939987626 L 266.666666667 14.4741183749 L 268.333333333 12.5618684265 L 270.0 13.1521963291 L 271.666666667 19.6112600536 L 273.333333333 19.6205403176 L 275.0 21.9086409569 L 276.666666667 18.8435759951 L 278.333333333 23.4517426273 L 280.0 16.2023097546 L 281.666666667 6.0553722417 L 283.333333333 7.06176531244 L 285.0 11.4240049495 L 286.666666667 11.5642400495 L 288.333333333 11.696226026 L 290.0 13.4893792535 L 291.666666667 13.0191792122 L 293.333333333 12.7773767787 L 295.0 27.5525881625 L 296.666666667 28.4651474531 L 298.333333333 28.4646318829 L 300.0 28.4666941637 L 301.666666667 28.4661785935 L 303.333333333 28.4666941637 L 305.0 28.4666941637 L 306.666666667 28.4666941637 L 308.333333333 27.9212208703 L 310.0 24.4003918334 L 311.666666667 23.3202722211 L 313.333333333 17.3623427511 L 315.0 16.0651680759 L 316.666666667 13.6796246649 L 318.333333333 10.9058568777 L 320.0 14.1910703238 L 321.666666667 17.3839967004 L 323.333333333 15.2613941019 L 325.0 15.9233862652 L 326.666666667 13.5491853991 L 328.333333333 15.971849866 L 330.0 19.1132192205 L 331.666666667 23.9209115282 L 333.333333333 19.2385027841 L 335.0 24.4710249536 L 336.666666667 16.4528768818 L 338.333333333 5.50628995669 L 340.0 8.13776036296 L 341.666666667 10.8666735409 L 343.333333333 11.5704268921 L 345.0 11.5673334708 L 346.666666667 11.70550629 L 348.333333333 13.1511651887 L 350.0 12.6361105383 L 351.666666667 14.0951742627 L 353.333333333 28.4666941637 L 355.0 28.4656630233 L 356.666666667 28.4687564446 L 358.333333333 28.4656630233 L 360.0 28.467209734 L 361.666666667 28.467209734 L 363.333333333 28.4651474531 L 365.0 28.4641163126 L 366.666666667 24.0977521138 L 368.333333333 23.8446071355 L 370.0 17.7737677872 L 371.666666667 16.1873582182 L 373.333333333 14.032790266 L 375.0 11.2940812539 L 376.666666667 15.3825531037 L 378.333333333 17.5077335533 L 380.0 15.6604454527 L 381.666666667 16.4528768818 L 383.333333333 13.9307073623 L 385.0 14.1993194473 L 386.666666667 18.0294906166 L 388.333333333 24.1245617653 L 390.0 18.8286244587 L 391.666666667 22.7938750258 L 393.333333333 16.33171788 L 395.0 6.31573520313 L 396.666666667 8.85388739946 L 398.333333333 10.509383378 L 400.0 11.3038770881 L 401.666666667 11.9643225407 L 403.333333333 11.5673334708 L 405.0 13.15425861 L 406.666666667 13.1521963291 L 408.333333333 13.6806558053 L 410.0 28.4682408744 L 411.666666667 28.4687564446 L 413.333333333 28.4687564446 L 415.0 28.4646318829 L 416.666666667 28.4646318829 L 418.333333333 28.4636007424 L 420.0 28.4646318829 L 421.666666667 28.467209734 L 423.333333333 24.3725510415 L 425.0 24.3137760363 L 426.666666667 17.6386883894 L 428.333333333 16.3147040627 L 430.0 14.3405856878 L 431.666666667 11.6941637451 L 433.333333333 13.6796246649 L 435.0 17.6422973809 L 436.666666667 15.1325015467 L 438.333333333 16.0615590843 L 440.0 15.1531243555 L 441.666666667 12.8871932357 L 443.333333333 17.5144359662 L 445.0 22.66343576 L 446.666666667 20.0118581151 L 448.333333333 24.1147659311 L 450.0 15.5269127655 L 451.666666667 7.73716230151 L 453.333333333 8.35687770674 L 455.0 4.8303773974 L 456.666666667 11.4508146009 L 458.333333333 11.1646731285 L 460.0 11.5673334708 L 461.666666667 12.2349969066 L 463.333333333 13.2841823056 L 465.0 12.754691689 L 466.666666667 28.4687564446 L 468.333333333 28.4661785935 L 470.0 28.4677253042 L 471.666666667 28.4940193854 L 473.333333333 28.4687564446 L 475.0 28.4666941637 L 476.666666667 28.4703031553 L 478.333333333 28.4651474531 L 480.0 28.4661785935 L 481.666666667 24.2415962054 L 483.333333333 24.1163126418 L 485.0 17.6407506702 L 486.666666667 16.2538667767 L 488.333333333 14.3400701176 L 490.0 12.4912353062 L 491.666666667 10.3944112188 L 493.333333333 17.0978552279 L 495.0 14.9948442978 L 496.666666667 14.0791915859 L 498.333333333 16.3038770881" /></svg>