<?xml version="1.0" encoding="UTF-8" standalone="no"?>
<!-- Generator: Adobe Illustrator 16.0.0, SVG Export Plug-In . SVG Version: 6.00 Build 0)  -->

<svg
   xmlns:dc="http://purl.org/dc/elements/1.1/"
   xmlns:cc="http://creativecommons.org/ns#"
   xmlns:rdf="http://www.w3.org/1999/02/22-rdf-syntax-ns#"
   xmlns:svg="http://www.w3.org/2000/svg"
   xmlns="http://www.w3.org/2000/svg"
   xmlns:sodipodi="http://sodipodi.sourceforge.net/DTD/sodipodi-0.dtd"
   xmlns:inkscape="http://www.inkscape.org/namespaces/inkscape"
   version="1.1"
   id="Capa_1"
   x="0px"
   y="0px"
   width="100"
   height="100"
   viewBox="0 0 99.999998 99.999997"
   xml:space="preserve"
   inkscape:version="0.48.4 r9939"
   sodipodi:docname="facebook-blue.svg"><metadata
     id="metadata40"><rdf:RDF><cc:Work
         rdf:about=""><dc:format>image/svg+xml</dc:format><dc:type
           rdf:resource="http://purl.org/dc/dcmitype/StillImage" /><dc:title /></cc:Work></rdf:RDF></metadata><defs
     id="defs38" /><sodipodi:namedview
     pagecolor="#ffffff"
     bordercolor="#666666"
     borderopacity="1"
     objecttolerance="10"
     gridtolerance="10"
     guidetolerance="10"
     inkscape:pageopacity="0"
     inkscape:pageshadow="2"
     inkscape:window-width="1317"
     inkscape:window-height="744"
     id="namedview36"
     showgrid="false"
     inkscape:zoom="2.1947669"
     inkscape:cx="80.561731"
     inkscape:cy="53.702745"
     inkscape:window-x="49"
     inkscape:window-y="24"
     inkscape:window-maximized="1"
     inkscape:current-layer="Capa_1" /><g
     id="g3"
     style="fill:#222266;fill-opacity:1"
     transform="matrix(0.16435543,0,0,0.16435543,14.933832,14.816431)"><path
       id="Facebook"
       d="m 158.081,83.3 c 0,10.839 0,59.218 0,59.218 h -43.385 v 72.412 h 43.385 v 215.183 h 89.122 V 214.936 h 59.805 c 0,0 5.601,-34.721 8.316,-72.685 -7.784,0 -67.784,0 -67.784,0 0,0 0,-42.127 0,-49.511 0,-7.4 9.717,-17.354 19.321,-17.354 9.586,0 29.818,0 48.557,0 0,-9.859 0,-43.924 0,-75.385 -25.016,0 -53.476,0 -66.021,0 C 155.878,-0.004 158.081,72.48 158.081,83.3 z"
       style="fill:#222266;fill-opacity:1"
       inkscape:connector-curvature="0" /></g><g
     id="g6"
     style="fill:#1551b3;fill-opacity:1"
     transform="matrix(0.71401752,0,0,0.71401752,13.295295,-221.60038)" /><g
     id="g8"
     style="fill:#1551b3;fill-opacity:1"
     transform="matrix(0.71401752,0,0,0.71401752,13.295295,-221.60038)" /><g
     id="g10"
     style="fill:#1551b3;fill-opacity:1"
     transform="matrix(0.71401752,0,0,0.71401752,13.295295,-221.60038)" /><g
     id="g12"
     style="fill:#1551b3;fill-opacity:1"
     transform="matrix(0.71401752,0,0,0.71401752,13.295295,-221.60038)" /><g
     id="g14"
     style="fill:#1551b3;fill-opacity:1"
     transform="matrix(0.71401752,0,0,0.71401752,13.295295,-221.60038)" /><g
     id="g16"
     style="fill:#1551b3;fill-opacity:1"
     transform="matrix(0.71401752,0,0,0.71401752,13.295295,-221.60038)" /><g
     id="g18"
     style="fill:#1551b3;fill-opacity:1"
     transform="matrix(0.71401752,0,0,0.71401752,13.295295,-221.60038)" /><g
     id="g20"
     style="fill:#1551b3;fill-opacity:1"
     transform="matrix(0.71401752,0,0,0.71401752,13.295295,-221.60038)" /><g
     id="g22"
     style="fill:#1551b3;fill-opacity:1"
     transform="matrix(0.71401752,0,0,0.71401752,13.295295,-221.60038)" /><g
     id="g24"
     style="fill:#1551b3;fill-opacity:1"
     transform="matrix(0.71401752,0,0,0.71401752,13.295295,-221.60038)" /><g
     id="g26"
     style="fill:#1551b3;fill-opacity:1"
     transform="matrix(0.71401752,0,0,0.71401752,13.295295,-221.60038)" /><g
     id="g28"
     style="fill:#1551b3;fill-opacity:1"
     transform="matrix(0.71401752,0,0,0.71401752,13.295295,-221.60038)" /><g
     id="g30"
     style="fill:#1551b3;fill-opacity:1"
     transform="matrix(0.71401752,0,0,0.71401752,13.295295,-221.60038)" /><g
     id="g32"
     style="fill:#1551b3;fill-opacity:1"
     transform="matrix(0.71401752,0,0,0.71401752,13.295295,-221.60038)" /><g
     id="g34"
     style="fill:#1551b3;fill-opacity:1"
     transform="matrix(0.71401752,0,0,0.71401752,13.295295,-221.60038)" /></svg>