<?xml version="1.0" encoding="UTF-8" standalone="no"?>
<!-- Generator: Adobe Illustrator 16.0.0, SVG Export Plug-In . SVG Version: 6.00 Build 0)  -->

<svg
   xmlns:dc="http://purl.org/dc/elements/1.1/"
   xmlns:cc="http://creativecommons.org/ns#"
   xmlns:rdf="http://www.w3.org/1999/02/22-rdf-syntax-ns#"
   xmlns:svg="http://www.w3.org/2000/svg"
   xmlns="http://www.w3.org/2000/svg"
   xmlns:sodipodi="http://sodipodi.sourceforge.net/DTD/sodipodi-0.dtd"
   xmlns:inkscape="http://www.inkscape.org/namespaces/inkscape"
   version="1.1"
   id="Capa_1"
   x="0px"
   y="0px"
   width="100"
   height="100"
   viewBox="0 0 100 100"
   xml:space="preserve"
   inkscape:version="0.48.4 r9939"
   sodipodi:docname="soundcloud-grey.svg"><metadata
     id="metadata40"><rdf:RDF><cc:Work
         rdf:about=""><dc:format>image/svg+xml</dc:format><dc:type
           rdf:resource="http://purl.org/dc/dcmitype/StillImage" /><dc:title /></cc:Work></rdf:RDF></metadata><defs
     id="defs38" /><sodipodi:namedview
     pagecolor="#ffffff"
     bordercolor="#666666"
     borderopacity="1"
     objecttolerance="10"
     gridtolerance="10"
     guidetolerance="10"
     inkscape:pageopacity="0"
     inkscape:pageshadow="2"
     inkscape:window-width="901"
     inkscape:window-height="583"
     id="namedview36"
     showgrid="false"
     inkscape:zoom="2.6222222"
     inkscape:cx="100.67176"
     inkscape:cy="37.321681"
     inkscape:window-x="249"
     inkscape:window-y="41"
     inkscape:window-maximized="0"
     inkscape:current-layer="Capa_1" /><g
     id="g3"
     style="fill:#363636;fill-opacity:1"
     transform="matrix(1.1101695,0,0,1.1101695,0,-1.0508474)"><path
       id="SoundCloud"
       d="m 0,54.023 c 0,3.043 1.385,5.764 3.568,7.598 V 46.43 C 1.385,48.259 0,50.982 0,54.023 M 7.342,44.432 V 63.615 C 8.233,63.861 9.174,64 10.143,64 h 0.974 V 44.094 c -0.325,-0.027 -0.65,-0.045 -0.98,-0.045 -0.972,0 -1.907,0.135 -2.795,0.383 m 8.336,1.245 C 15.42,45.512 15.163,45.36 14.889,45.22 V 64 h 3.773 V 38.881 c -1.502,1.96 -2.549,4.274 -2.984,6.796 M 22.437,35.349 V 64 h 3.774 V 33.491 c -1.349,0.454 -2.615,1.086 -3.774,1.858 M 29.984,32.71 V 64 h 3.774 V 32.825 c -0.773,-0.115 -1.569,-0.175 -2.38,-0.175 -0.472,0 -0.937,0.023 -1.394,0.06 m 9.628,2.206 C 38.38,34.186 37.054,33.61 35.646,33.226 V 64 h 5.66 V 32.646 c -0.618,0.713 -1.186,1.474 -1.694,2.27 m 3.583,-4.162 V 64 H 79.047 V 63.956 C 86.596,63.473 90,58.79 90,53.075 90,47.04 85.438,42.15 79.297,42.15 c -1.576,0 -2.874,0.325 -4.245,0.913 C 74.07,33.481 65.941,26 55.932,26 c -4.896,0 -9.346,1.793 -12.737,4.754"
       style="fill:#363636;fill-opacity:1"
       inkscape:connector-curvature="0" /></g><g
     id="g6"
     style="fill:#363636;fill-opacity:1"
     transform="matrix(1.1101695,0,0,1.1101695,0,2.9491526)" /><g
     id="g8"
     style="fill:#363636;fill-opacity:1"
     transform="matrix(1.1101695,0,0,1.1101695,0,2.9491526)" /><g
     id="g10"
     style="fill:#363636;fill-opacity:1"
     transform="matrix(1.1101695,0,0,1.1101695,0,2.9491526)" /><g
     id="g12"
     style="fill:#363636;fill-opacity:1"
     transform="matrix(1.1101695,0,0,1.1101695,0,2.9491526)" /><g
     id="g14"
     style="fill:#363636;fill-opacity:1"
     transform="matrix(1.1101695,0,0,1.1101695,0,2.9491526)" /><g
     id="g16"
     style="fill:#363636;fill-opacity:1"
     transform="matrix(1.1101695,0,0,1.1101695,0,2.9491526)" /><g
     id="g18"
     style="fill:#363636;fill-opacity:1"
     transform="matrix(1.1101695,0,0,1.1101695,0,2.9491526)" /><g
     id="g20"
     style="fill:#363636;fill-opacity:1"
     transform="matrix(1.1101695,0,0,1.1101695,0,2.9491526)" /><g
     id="g22"
     style="fill:#363636;fill-opacity:1"
     transform="matrix(1.1101695,0,0,1.1101695,0,2.9491526)" /><g
     id="g24"
     style="fill:#363636;fill-opacity:1"
     transform="matrix(1.1101695,0,0,1.1101695,0,2.9491526)" /><g
     id="g26"
     style="fill:#363636;fill-opacity:1"
     transform="matrix(1.1101695,0,0,1.1101695,0,2.9491526)" /><g
     id="g28"
     style="fill:#363636;fill-opacity:1"
     transform="matrix(1.1101695,0,0,1.1101695,0,2.9491526)" /><g
     id="g30"
     style="fill:#363636;fill-opacity:1"
     transform="matrix(1.1101695,0,0,1.1101695,0,2.9491526)" /><g
     id="g32"
     style="fill:#363636;fill-opacity:1"
     transform="matrix(1.1101695,0,0,1.1101695,0,2.9491526)" /><g
     id="g34"
     style="fill:#363636;fill-opacity:1"
     transform="matrix(1.1101695,0,0,1.1101695,0,2.9491526)" /></svg>