<?xml version="1.0" encoding="UTF-8" standalone="no"?>
<!-- Generator: Adobe Illustrator 16.0.0, SVG Export Plug-In . SVG Version: 6.00 Build 0)  -->

<svg
   xmlns:dc="http://purl.org/dc/elements/1.1/"
   xmlns:cc="http://creativecommons.org/ns#"
   xmlns:rdf="http://www.w3.org/1999/02/22-rdf-syntax-ns#"
   xmlns:svg="http://www.w3.org/2000/svg"
   xmlns="http://www.w3.org/2000/svg"
   xmlns:sodipodi="http://sodipodi.sourceforge.net/DTD/sodipodi-0.dtd"
   xmlns:inkscape="http://www.inkscape.org/namespaces/inkscape"
   version="1.1"
   id="Capa_1"
   x="0px"
   y="0px"
   width="100"
   height="100"
   viewBox="0 0 99.999999 99.999999"
   xml:space="preserve"
   inkscape:version="0.48.4 r9939"
   sodipodi:docname="twitter-blue.svg"><metadata
     id="metadata40"><rdf:RDF><cc:Work
         rdf:about=""><dc:format>image/svg+xml</dc:format><dc:type
           rdf:resource="http://purl.org/dc/dcmitype/StillImage" /><dc:title /></cc:Work></rdf:RDF></metadata><defs
     id="defs38" /><sodipodi:namedview
     pagecolor="#ffffff"
     bordercolor="#666666"
     borderopacity="1"
     objecttolerance="10"
     gridtolerance="10"
     guidetolerance="10"
     inkscape:pageopacity="0"
     inkscape:pageshadow="2"
     inkscape:window-width="1317"
     inkscape:window-height="744"
     id="namedview36"
     showgrid="false"
     inkscape:zoom="1.5519238"
     inkscape:cx="-168.92177"
     inkscape:cy="25.607002"
     inkscape:window-x="49"
     inkscape:window-y="24"
     inkscape:window-maximized="1"
     inkscape:current-layer="Capa_1" /><g
     id="g3"
     style="fill:#222266;fill-opacity:1"
     transform="matrix(0.23147081,0,0,0.23147081,0,-0.91103802)"><path
       id="Twitter__x28_alt_x29_"
       d="m 381.384,198.639 c 24.157,-1.993 40.543,-12.975 46.849,-27.876 -8.714,5.353 -35.764,11.189 -50.703,5.631 -0.732,-3.51 -1.55,-6.844 -2.353,-9.854 -11.383,-41.798 -50.357,-75.472 -91.194,-71.404 3.304,-1.334 6.655,-2.576 9.996,-3.691 4.495,-1.61 30.868,-5.901 26.715,-15.21 -3.5,-8.188 -35.722,6.188 -41.789,8.067 8.009,-3.012 21.254,-8.193 22.673,-17.396 -12.27,1.683 -24.315,7.484 -33.622,15.919 3.36,-3.617 5.909,-8.025 6.45,-12.769 C 241.68,90.963 222.563,133.113 207.092,174 194.944,162.227 184.177,152.956 174.518,147.808 147.421,133.277 115.022,118.116 64.163,99.236 c -1.561,16.827 8.322,39.201 36.8,54.08 -6.17,-0.826 -17.453,1.017 -26.477,3.178 3.675,19.277 15.677,35.159 48.169,42.839 -14.849,0.98 -22.523,4.359 -29.478,11.642 6.763,13.407 23.266,29.186 52.953,25.947 -33.006,14.226 -13.458,40.571 13.399,36.642 C 113.713,320.887 41.479,317.409 0,277.828 108.299,425.4 343.716,365.102 378.799,222.962 c 26.285,0.224 41.737,-9.105 51.318,-19.39 -15.144,2.57 -37.094,-0.086 -48.733,-4.933 z"
       style="fill:#222266;fill-opacity:1"
       inkscape:connector-curvature="0" /></g><g
     id="g6"
     style="fill:#1551b3;fill-opacity:1"
     transform="matrix(0.23147081,0,0,0.23147081,0,-0.91103802)" /><g
     id="g8"
     style="fill:#1551b3;fill-opacity:1"
     transform="matrix(0.23147081,0,0,0.23147081,0,-0.91103802)" /><g
     id="g10"
     style="fill:#1551b3;fill-opacity:1"
     transform="matrix(0.23147081,0,0,0.23147081,0,-0.91103802)" /><g
     id="g12"
     style="fill:#1551b3;fill-opacity:1"
     transform="matrix(0.23147081,0,0,0.23147081,0,-0.91103802)" /><g
     id="g14"
     style="fill:#1551b3;fill-opacity:1"
     transform="matrix(0.23147081,0,0,0.23147081,0,-0.91103802)" /><g
     id="g16"
     style="fill:#1551b3;fill-opacity:1"
     transform="matrix(0.23147081,0,0,0.23147081,0,-0.91103802)" /><g
     id="g18"
     style="fill:#1551b3;fill-opacity:1"
     transform="matrix(0.23147081,0,0,0.23147081,0,-0.91103802)" /><g
     id="g20"
     style="fill:#1551b3;fill-opacity:1"
     transform="matrix(0.23147081,0,0,0.23147081,0,-0.91103802)" /><g
     id="g22"
     style="fill:#1551b3;fill-opacity:1"
     transform="matrix(0.23147081,0,0,0.23147081,0,-0.91103802)" /><g
     id="g24"
     style="fill:#1551b3;fill-opacity:1"
     transform="matrix(0.23147081,0,0,0.23147081,0,-0.91103802)" /><g
     id="g26"
     style="fill:#1551b3;fill-opacity:1"
     transform="matrix(0.23147081,0,0,0.23147081,0,-0.91103802)" /><g
     id="g28"
     style="fill:#1551b3;fill-opacity:1"
     transform="matrix(0.23147081,0,0,0.23147081,0,-0.91103802)" /><g
     id="g30"
     style="fill:#1551b3;fill-opacity:1"
     transform="matrix(0.23147081,0,0,0.23147081,0,-0.91103802)" /><g
     id="g32"
     style="fill:#1551b3;fill-opacity:1"
     transform="matrix(0.23147081,0,0,0.23147081,0,-0.91103802)" /><g
     id="g34"
     style="fill:#1551b3;fill-opacity:1"
     transform="matrix(0.23147081,0,0,0.23147081,0,-0.91103802)" /></svg>