<?xml version="1.0" encoding="utf-8" ?>
<svg baseProfile="full" height="30px" version="1.1" width="500px" xmlns="http://www.w3.org/2000/svg" xmlns:ev="http://www.w3.org/2001/xml-events" xmlns:xlink="http://www.w3.org/1999/xlink"><defs /><style type="text/css"><![CDATA[svg {
  background-color: none;
}
.tile {
  fill: #ccc;
}
rect.waveform {
  fill: white;
  stroke-width: 0;
}
path.waveform {
  fill: none;
  stroke: black;
  stroke-width: 2;
}]]></style><path class="waveform" d="M 0 15 L 0.0 10.0187867195 L 1.66666666667 6.13505943435 L 3.33333333333 28.0560868971 L 5.0 23.0584779341 L 6.66666666667 21.8175297172 L 8.33333333333 0.393496379287 L 10.0 16.3352233912 L 11.6666666667 24.006353327 L 13.3333333333 3.27606230359 L 15.0 14.33597486 L 16.6666666667 14.2939609236 L 18.3333333333 17.0802022134 L 20.0 16.1005601858 L 21.6666666667 17.3999180216 L 23.3333333333 20.2804344856 L 25.0 12.1563738216 L 26.6666666667 0.00204946030879 L 28.3333333333 26.5046454434 L 30.0 5.35011613608 L 31.6666666667 4.66969531357 L 33.3333333333 0.739855171472 L 35.0 25.9482169695 L 36.6666666667 20.0724142642 L 38.3333333333 27.5877852166 L 40.0 27.3029102336 L 41.6666666667 5.44541604044 L 43.3333333333 26.6276130619 L 45.0 21.1299357836 L 46.6666666667 6.26315070365 L 48.3333333333 28.0540374368 L 50.0 1.39670720044 L 51.6666666667 23.7050826616 L 53.3333333333 9.04529307282 L 55.0 1.68773056428 L 56.6666666667 1.35059434349 L 58.3333333333 19.1163410302 L 60.0 16.168192376 L 61.6666666667 17.7718950676 L 63.3333333333 8.4325044405 L 65.0 12.3059844241 L 66.6666666667 2.26157945074 L 68.3333333333 14.1873889876 L 70.0 16.2481213281 L 71.6666666667 16.1169558683 L 73.3333333333 13.9424784807 L 75.0 19.9187047411 L 76.6666666667 12.8808580407 L 78.3333333333 26.0394179533 L 80.0 9.93680830715 L 81.6666666667 9.96242656101 L 83.3333333333 5.7272168329 L 85.0 3.84068861866 L 86.6666666667 3.4871567154 L 88.3333333333 4.48934280639 L 90.0 24.0955048504 L 91.6666666667 10.9871567154 L 93.3333333333 8.67639021724 L 95.0 13.0120235005 L 96.6666666667 15.6004918705 L 98.3333333333 14.4763628911 L 100.0 1.86090996038 L 101.666666667 18.8652821424 L 103.333333333 18.5886050007 L 105.0 29.011135401 L 106.666666667 26.077332969 L 108.333333333 16.6539144692 L 110.0 3.8150703648 L 111.666666667 25.0925672906 L 113.333333333 21.2108894658 L 115.0 2.01359475338 L 116.666666667 1.72359611969 L 118.333333333 16.4192512638 L 120.0 9.94808033884 L 121.666666667 10.1294575762 L 123.333333333 7.80741904632 L 125.0 4.58976636152 L 126.666666667 14.3472468917 L 128.333333333 19.5436535046 L 130.0 1.40388031152 L 131.666666667 6.11763902172 L 133.333333333 15.9847656784 L 135.0 15.544131712 L 136.666666667 12.1092362345 L 138.333333333 11.6890968712 L 140.0 3.54659106435 L 141.666666667 7.18950676322 L 143.333333333 7.67112993578 L 145.0 5.35114086624 L 146.666666667 18.8570843011 L 148.333333333 6.5203579724 L 150.0 11.648107665 L 151.666666667 10.6039076377 L 153.333333333 13.7580270529 L 155.0 18.2043311928 L 156.666666667 18.2924579861 L 158.333333333 9.49617434076 L 160.0 15.7777701872 L 161.666666667 13.314318896 L 163.333333333 5.06831534363 L 165.0 22.4569613335 L 166.666666667 16.7410165323 L 168.333333333 9.27893154803 L 170.0 4.3745730291 L 171.666666667 2.63048230633 L 173.333333333 2.05970761033 L 175.0 12.0375051237 L 176.666666667 5.99262194289 L 178.333333333 17.6837682744 L 180.0 2.45422871977 L 181.666666667 5.86145648313 L 183.333333333 15.0758300314 L 185.0 12.4238283919 L 186.666666667 7.05321765268 L 188.333333333 21.1729744501 L 190.0 22.9601038393 L 191.666666667 21.5039622899 L 193.333333333 10.4051099877 L 195.0 24.0012296762 L 196.666666667 16.7717584369 L 198.333333333 25.3364530674 L 200.0 18.8652821424 L 201.666666667 26.1787812543 L 203.333333333 0.00409892061757 L 205.0 15.9980871704 L 206.666666667 9.93270938653 L 208.333333333 17.3425331329 L 210.0 15.2162180626 L 211.666666667 4.07637655417 L 213.333333333 23.09741768 L 215.0 7.75105888783 L 216.666666667 23.1947670447 L 218.333333333 17.867194972 L 220.0 10.6766634786 L 221.666666667 12.4822380107 L 223.333333333 9.81589014893 L 225.0 27.4904358519 L 226.666666667 3.58962973084 L 228.333333333 20.0693400738 L 230.0 11.7987429977 L 231.666666667 18.3395955732 L 233.333333333 21.3697226397 L 235.0 7.78180079246 L 236.666666667 15.7080885367 L 238.333333333 14.7889055882 L 240.0 5.19743134308 L 241.666666667 19.327435442 L 243.333333333 7.73671266566 L 245.0 20.5345675639 L 246.666666667 1.19483536002 L 248.333333333 22.7162180626 L 250.0 7.72031698319 L 251.666666667 4.18499795054 L 253.333333333 23.5257548845 L 255.0 5.72004372182 L 256.666666667 28.0448148654 L 258.333333333 26.0097007788 L 260.0 23.070774696 L 261.666666667 15.8474518377 L 263.333333333 25.3344036071 L 265.0 22.1423691761 L 266.666666667 12.5631916929 L 268.333333333 10.3835906545 L 270.0 16.8896024047 L 271.666666667 26.0793824293 L 273.333333333 2.34868151387 L 275.0 8.15685202897 L 276.666666667 12.1666211231 L 278.333333333 15.4119415221 L 280.0 10.7504440497 L 281.666666667 0.00102473015439 L 283.333333333 7.46003552398 L 285.0 19.8223801066 L 286.666666667 22.8822243476 L 288.333333333 28.8246345129 L 290.0 15.8740948217 L 291.666666667 18.8745047138 L 293.333333333 13.1667577538 L 295.0 29.9989752698 L 296.666666667 28.5776745457 L 298.333333333 11.1388167782 L 300.0 29.7294712392 L 301.666666667 15.5072414264 L 303.333333333 11.7034430933 L 305.0 23.0379833311 L 306.666666667 21.2293346086 L 308.333333333 9.97062440224 L 310.0 11.5917475065 L 311.666666667 11.4472605547 L 313.333333333 4.95559502664 L 315.0 8.94794370816 L 316.666666667 8.61388167782 L 318.333333333 6.39943981418 L 320.0 7.24689165187 L 321.666666667 18.4184997951 L 323.333333333 19.1808990299 L 325.0 3.33344719224 L 326.666666667 4.36739991802 L 328.333333333 27.2608962973 L 330.0 7.53176663479 L 331.666666667 29.9959010794 L 333.333333333 15.2961470146 L 335.0 14.3974586692 L 336.666666667 19.1542560459 L 338.333333333 18.6490640798 L 340.0 5.30297854898 L 341.666666667 9.31172291297 L 343.333333333 8.35052602815 L 345.0 23.2419046318 L 346.666666667 24.22564558 L 348.333333333 24.1744090723 L 350.0 22.6690804755 L 351.666666667 6.43428063943 L 353.333333333 14.6792594617 L 355.0 6.89233501845 L 356.666666667 12.3941112174 L 358.333333333 8.56879355103 L 360.0 18.4943298265 L 361.666666667 17.92048094 L 363.333333333 10.8447192239 L 365.0 2.54030605274 L 366.666666667 18.0967345266 L 368.333333333 4.15528077606 L 370.0 8.08819510862 L 371.666666667 15.8597485995 L 373.333333333 19.1009700779 L 375.0 24.1293209455 L 376.666666667 13.925058068 L 378.333333333 13.7416313704 L 380.0 5.74668670583 L 381.666666667 15.4129662522 L 383.333333333 27.8419182948 L 385.0 8.79115999453 L 386.666666667 25.4235551305 L 388.333333333 6.20679054516 L 390.0 18.1387484629 L 391.666666667 24.5228173248 L 393.333333333 19.9217789315 L 395.0 5.5765815002 L 396.666666667 2.46345129116 L 398.333333333 6.93025003416 L 400.0 22.2725099057 L 401.666666667 20.9167919115 L 403.333333333 0.162932094548 L 405.0 20.8491597213 L 406.666666667 12.5888099467 L 408.333333333 5.83071457849 L 410.0 21.696611559 L 411.666666667 10.1181855445 L 413.333333333 10.898005192 L 415.0 18.0793141139 L 416.666666667 16.0011613608 L 418.333333333 13.6494056565 L 420.0 5.19128296215 L 421.666666667 22.2171744774 L 423.333333333 1.7502391037 L 425.0 5.15234321629 L 426.666666667 8.89055881951 L 428.333333333 25.0915425605 L 430.0 3.91549391993 L 431.666666667 17.4952179259 L 433.333333333 12.6656647083 L 435.0 7.77360295122 L 436.666666667 6.50088809947 L 438.333333333 21.1166142916 L 440.0 29.9969258095 L 441.666666667 10.3569476704 L 443.333333333 13.3153436262 L 445.0 16.1354010111 L 446.666666667 28.4895477524 L 448.333333333 26.8827708703 L 450.0 19.5651728378 L 451.666666667 24.1088263424 L 453.333333333 0.0 L 455.0 5.23637108895 L 456.666666667 20.8327640388 L 458.333333333 4.25365487088 L 460.0 22.5850526028 L 461.666666667 19.3100150294 L 463.333333333 27.6718130892 L 465.0 9.95525344992 L 466.666666667 16.1866375188 L 468.333333333 22.2274217789 L 470.0 20.2486678508 L 471.666666667 16.6805574532 L 473.333333333 23.654870884 L 475.0 23.614906408 L 476.666666667 15.6486541877 L 478.333333333 20.6739308649 L 480.0 6.94357152616 L 481.666666667 20.2261237874 L 483.333333333 3.62754474655 L 485.0 3.9298401421 L 486.666666667 13.9793687662 L 488.333333333 27.5888099467 L 490.0 12.1871157262 L 491.666666667 21.5551987976 L 493.333333333 0.959147424512 L 495.0 10.731998907 L 496.666666667 27.4258778522 L 498.333333333 21.10636699" /></svg>