<?xml version="1.0" encoding="utf-8" ?>
<svg baseProfile="full" height="30px" version="1.1" width="500px" xmlns="http://www.w3.org/2000/svg" xmlns:ev="http://www.w3.org/2001/xml-events" xmlns:xlink="http://www.w3.org/1999/xlink"><defs /><style type="text/css"><![CDATA[svg {
  background-color: none;
}
.tile {
  fill: #ccc;
}
rect.waveform {
  fill: white;
  stroke-width: 0;
}
path.waveform {
  fill: none;
  stroke: black;
  stroke-width: 2;
}]]></style><path class="waveform" d="M 0 15 L 0.0 11.4734123809 L 1.66666666667 7.94900705608 L 3.33333333333 8.55895831818 L 5.0 1.2329962901 L 6.66666666667 11.8869571543 L 8.33333333333 10.207681676 L 10.0 16.1446133702 L 11.6666666667 8.53058849203 L 13.3333333333 14.6661089692 L 15.0 9.78213428384 L 16.6666666667 9.13835745981 L 18.3333333333 8.52295046192 L 20.0 14.8145049829 L 21.6666666667 11.1580708518 L 23.3333333333 11.0991489052 L 25.0 7.73077762421 L 26.6666666667 15.3087946461 L 28.3333333333 16.0562304503 L 30.0 14.4718847749 L 31.6666666667 11.0729613734 L 33.3333333333 7.66967338328 L 35.0 9.75703789918 L 36.6666666667 15.0785625955 L 38.3333333333 14.8057758056 L 40.0 15.1363933949 L 41.6666666667 14.6933876482 L 43.3333333333 12.2895904561 L 45.0 15.1647632211 L 46.6666666667 15.4811958973 L 48.3333333333 11.1689823234 L 50.0 7.73405106569 L 51.6666666667 15.7910816906 L 53.3333333333 14.6650178221 L 55.0 14.6202807885 L 56.6666666667 15.9045609951 L 58.3333333333 11.631628719 L 60.0 14.4282388885 L 61.6666666667 16.5112388157 L 63.3333333333 11.5050556485 L 65.0 7.31286826217 L 66.6666666667 16.6050774714 L 68.3333333333 9.54862879174 L 70.0 6.07223394195 L 71.6666666667 8.0668509493 L 73.3333333333 14.9225285517 L 75.0 10.7663490216 L 76.6666666667 12.4347130283 L 78.3333333333 9.85414999636 L 80.0 7.34669382411 L 81.6666666667 12.4030697607 L 83.3333333333 14.7097548556 L 85.0 14.4020513567 L 86.6666666667 14.4544264203 L 88.3333333333 13.0926747654 L 90.0 8.34182003346 L 91.6666666667 11.6752746054 L 93.3333333333 16.5701607623 L 95.0 14.8712446352 L 96.6666666667 10.8874663563 L 98.3333333333 10.9551174802 L 100.0 14.5733614607 L 101.666666667 7.33687349967 L 103.333333333 11.5956208627 L 105.0 10.3277078635 L 106.666666667 19.9505346621 L 108.333333333 14.0921655634 L 110.0 10.4193642249 L 111.666666667 9.7483087219 L 113.333333333 10.4171819306 L 115.0 15.7725321888 L 116.666666667 12.3932494362 L 118.333333333 16.095511748 L 120.0 14.0572488543 L 121.666666667 14.4893431294 L 123.333333333 11.0511384302 L 125.0 14.7293955045 L 126.666666667 15.0370990034 L 128.333333333 13.6196988434 L 130.0 11.2944642467 L 131.666666667 14.2187386339 L 133.333333333 13.9568633156 L 135.0 14.918163963 L 136.666666667 7.61948061395 L 138.333333333 8.95831817851 L 140.0 14.8952498727 L 141.666666667 11.0151305739 L 143.333333333 11.378482578 L 145.0 10.3200698334 L 146.666666667 19.9472612206 L 148.333333333 11.0184040154 L 150.0 11.6239906889 L 151.666666667 14.7795882738 L 153.333333333 12.2219393322 L 155.0 10.2153197061 L 156.666666667 9.61518876846 L 158.333333333 0.0 L 160.0 14.6213719357 L 161.666666667 13.9961446134 L 163.333333333 6.43558594602 L 165.0 10.7663490216 L 166.666666667 14.678111588 L 168.333333333 7.73077762421 L 170.0 14.6530152033 L 171.666666667 8.25780170219 L 173.333333333 14.6333745544 L 175.0 10.8274532625 L 176.666666667 16.3890303339 L 178.333333333 11.6349021605 L 180.0 12.5230959482 L 181.666666667 8.74881792391 L 183.333333333 12.4925438277 L 185.0 14.1456317742 L 186.666666667 13.7888266531 L 188.333333333 15.0469193279 L 190.0 11.3773914309 L 191.666666667 14.4980723067 L 193.333333333 15.4528260711 L 195.0 14.8123226886 L 196.666666667 14.7250309158 L 198.333333333 14.5908198152 L 200.0 14.3093038481 L 201.666666667 16.5843456754 L 203.333333333 16.3410198589 L 205.0 14.8636066051 L 206.666666667 10.4248199607 L 208.333333333 15.2553284353 L 210.0 15.0676511239 L 211.666666667 14.6824761766 L 213.333333333 14.6530152033 L 215.0 14.048519677 L 216.666666667 13.630610315 L 218.333333333 10.4913799374 L 220.0 13.4243835019 L 221.666666667 7.52345966393 L 223.333333333 10.4182730778 L 225.0 14.5602676948 L 226.666666667 11.679639194 L 228.333333333 10.7150651051 L 230.0 7.61948061395 L 231.666666667 14.4817050993 L 233.333333333 13.8793918673 L 235.0 10.529570088 L 236.666666667 15.1527606023 L 238.333333333 8.68444024151 L 240.0 10.9245653597 L 241.666666667 10.3364370408 L 243.333333333 16.2220848185 L 245.0 15.0425547392 L 246.666666667 14.7621299193 L 248.333333333 11.1646177348 L 250.0 17.5423728814 L 251.666666667 14.8232341602 L 253.333333333 11.9087800975 L 255.0 14.5373536044 L 256.666666667 14.6202807885 L 258.333333333 14.8308721903 L 260.0 10.2600567397 L 261.666666667 12.7347784971 L 263.333333333 15.0774714483 L 265.0 7.93482214301 L 266.666666667 14.7828617153 L 268.333333333 14.8177784244 L 270.0 14.5220775442 L 271.666666667 14.6726558522 L 273.333333333 14.6824761766 L 275.0 14.8625154579 L 276.666666667 12.0178948134 L 278.333333333 11.1722557649 L 280.0 14.0310613225 L 281.666666667 11.1646177348 L 283.333333333 11.7560194952 L 285.0 11.8040299702 L 286.666666667 10.8230886739 L 288.333333333 9.90543391285 L 290.0 10.7237942824 L 291.666666667 10.9365679785 L 293.333333333 11.0271331927 L 295.0 7.00625591038 L 296.666666667 11.2911908053 L 298.333333333 12.2579471885 L 300.0 11.0980577581 L 301.666666667 10.7979922892 L 303.333333333 11.3064668655 L 305.0 11.3162871899 L 306.666666667 10.2873354186 L 308.333333333 16.2155379355 L 310.0 10.3658980141 L 311.666666667 14.103077035 L 313.333333333 14.6879319124 L 315.0 11.4068524042 L 316.666666667 14.4206008584 L 318.333333333 14.7664945079 L 320.0 14.1041681821 L 321.666666667 14.6922965011 L 323.333333333 12.5121844766 L 325.0 11.6436313377 L 326.666666667 14.021240998 L 328.333333333 14.6813850295 L 330.0 14.7686768022 L 331.666666667 6.19226012948 L 333.333333333 11.706917873 L 335.0 17.3088673892 L 336.666666667 14.3813195606 L 338.333333333 10.2807885357 L 340.0 14.7272132102 L 341.666666667 15.246599258 L 343.333333333 11.6458136321 L 345.0 15.0731068597 L 346.666666667 11.2922819524 L 348.333333333 7.44489706845 L 350.0 11.4155815814 L 351.666666667 6.77384156543 L 353.333333333 11.3915763439 L 355.0 10.8296355568 L 356.666666667 10.9823961592 L 358.333333333 10.9562086273 L 360.0 10.234960355 L 361.666666667 10.9387502728 L 363.333333333 6.8043936859 L 365.0 14.6955699425 L 366.666666667 11.6741834582 L 368.333333333 11.3795737252 L 370.0 12.411798938 L 371.666666667 11.5399723576 L 373.333333333 11.179893795 L 375.0 11.4995999127 L 376.666666667 10.960573216 L 378.333333333 11.9862515458 L 380.0 11.2388157416 L 381.666666667 11.9098712446 L 383.333333333 11.6829126355 L 385.0 11.6141703644 L 386.666666667 13.2410707791 L 388.333333333 11.3392012803 L 390.0 11.0904197279 L 391.666666667 11.3348366916 L 393.333333333 11.7734778497 L 395.0 10.7488906671 L 396.666666667 11.8138502946 L 398.333333333 11.03586237 L 400.0 10.9256565069 L 401.666666667 11.5137848258 L 403.333333333 11.3130137485 L 405.0 10.8798283262 L 406.666666667 11.7811158798 L 408.333333333 10.7630755801 L 410.0 10.6888775733 L 411.666666667 11.1438859388 L 413.333333333 11.1438859388 L 415.0 11.8400378264 L 416.666666667 14.2460173129 L 418.333333333 11.6185349531 L 420.0 10.9431148614 L 421.666666667 10.8820106205 L 423.333333333 10.837273587 L 425.0 11.0991489052 L 426.666666667 10.8067214665 L 428.333333333 11.4352222303 L 430.0 10.9649378046 L 431.666666667 10.7357969011 L 433.333333333 11.898959773 L 435.0 10.0592856623 L 436.666666667 9.56826944061 L 438.333333333 10.1247544919 L 440.0 9.6544700662 L 441.666666667 11.2606386848 L 443.333333333 11.4417691133 L 445.0 11.1744380592 L 446.666666667 10.7227031352 L 448.333333333 10.6157707136 L 450.0 11.1406124973 L 451.666666667 11.2235396814 L 453.333333333 15.4364588638 L 455.0 9.95344438787 L 456.666666667 11.4406779661 L 458.333333333 11.2846439223 L 460.0 11.7832981741 L 461.666666667 11.5934385684 L 463.333333333 11.5301520332 L 465.0 12.1815668873 L 466.666666667 11.7123736088 L 468.333333333 10.9485705972 L 470.0 11.5279697389 L 471.666666667 10.6845129847 L 473.333333333 12.2175747436 L 475.0 11.8280352077 L 476.666666667 7.15901651269 L 478.333333333 11.953517131 L 480.0 11.0042191023 L 481.666666667 11.7931184986 L 483.333333333 11.186440678 L 485.0 10.077835164 L 486.666666667 11.0936931694 L 488.333333333 11.5868916855 L 490.0 11.2584563905 L 491.666666667 12.9290026915 L 493.333333333 11.3359278388 L 495.0 11.7723867026 L 496.666666667 11.7352876991 L 498.333333333 9.25838364734" /></svg>