<?xml version="1.0" encoding="utf-8" ?>
<svg baseProfile="full" height="30px" version="1.1" width="500px" xmlns="http://www.w3.org/2000/svg" xmlns:ev="http://www.w3.org/2001/xml-events" xmlns:xlink="http://www.w3.org/1999/xlink"><defs /><style type="text/css"><![CDATA[svg {
  background-color: none;
}
.tile {
  fill: #ccc;
}
rect.waveform {
  fill: white;
  stroke-width: 0;
}
path.waveform {
  fill: none;
  stroke: black;
  stroke-width: 2;
}]]></style><path class="waveform" d="M 0 15 L 0.0 14.1390144839 L 1.66666666667 13.9010652157 L 3.33333333333 0.293125910031 L 5.0 1.74266227297 L 6.66666666667 15.0448310215 L 8.33333333333 5.27281784045 L 10.0 15.1459881983 L 11.6666666667 3.86926201241 L 13.3333333333 8.13395662503 L 15.0 9.95363629397 L 16.6666666667 14.8781515825 L 18.3333333333 0.00229902674535 L 20.0 11.9940225305 L 21.6666666667 13.8458885738 L 23.3333333333 16.6277109357 L 25.0 13.4182695992 L 26.6666666667 0.00574756686336 L 28.3333333333 0.00689708023604 L 30.0 11.9147061077 L 31.6666666667 13.510230669 L 33.3333333333 18.40830715 L 35.0 13.8815234884 L 36.6666666667 0.00574756686336 L 38.3333333333 17.288681125 L 40.0 13.9734845582 L 41.6666666667 14.9241321174 L 43.3333333333 14.7344624109 L 45.0 15.2701356426 L 46.6666666667 14.006820446 L 48.3333333333 17.3358111733 L 50.0 0.0850639895777 L 51.6666666667 13.4550540271 L 53.3333333333 16.6047206683 L 55.0 13.24814162 L 56.6666666667 5.63261552609 L 58.3333333333 17.3312131198 L 60.0 14.3539734846 L 61.6666666667 14.4401869875 L 63.3333333333 8.7029657445 L 65.0 12.7860372442 L 66.6666666667 14.5206529236 L 68.3333333333 15.0758678826 L 70.0 10.9019848264 L 71.6666666667 0.00459805349069 L 73.3333333333 15.0103456204 L 75.0 14.7781439191 L 76.6666666667 4.47505555981 L 78.3333333333 1.7763568394e-15 L 80.0 15.5092344241 L 81.6666666667 14.1275193501 L 83.3333333333 13.3791861445 L 85.0 0.00229902674535 L 86.6666666667 14.8137788336 L 88.3333333333 14.5827266457 L 90.0 15.0459805349 L 91.6666666667 14.5068587631 L 93.3333333333 8.76388995325 L 95.0 11.0157866503 L 96.6666666667 13.3309065829 L 98.3333333333 9.55475515365 L 100.0 14.5286995172 L 101.666666667 15.1161008506 L 103.333333333 16.1265231052 L 105.0 14.5183538969 L 106.666666667 5.46938462717 L 108.333333333 16.6725419572 L 110.0 16.1656065599 L 111.666666667 14.8907962296 L 113.333333333 11.3732853092 L 115.0 13.433213273 L 116.666666667 0.00459805349069 L 118.333333333 14.8999923366 L 120.0 14.8701049889 L 121.666666667 14.1183232432 L 123.333333333 14.9080389302 L 125.0 15.3138171507 L 126.666666667 14.3850103456 L 128.333333333 0.00344854011802 L 130.0 0.00344854011802 L 131.666666667 13.5539121772 L 133.333333333 13.5539121772 L 135.0 11.6457199785 L 136.666666667 14.7999846732 L 138.333333333 0.00459805349069 L 140.0 13.9596903977 L 141.666666667 15.3471530385 L 143.333333333 6.10736454901 L 145.0 12.1630009962 L 146.666666667 10.3571154878 L 148.333333333 0.00229902674535 L 150.0 15.252892942 L 151.666666667 8.08337803663 L 153.333333333 13.0009962449 L 155.0 14.8436661813 L 156.666666667 15.6080925741 L 158.333333333 9.90305770557 L 160.0 13.4987355353 L 161.666666667 14.9264311441 L 163.333333333 10.1938845889 L 165.0 14.7792934324 L 166.666666667 14.9655145988 L 168.333333333 13.4493064603 L 170.0 11.4169668174 L 171.666666667 3.96352210897 L 173.333333333 13.2998697218 L 175.0 15.1747260326 L 176.666666667 0.00344854011802 L 178.333333333 0.00114951337267 L 180.0 15.0471300483 L 181.666666667 11.2755766725 L 183.333333333 14.0688941681 L 185.0 13.8539351674 L 186.666666667 3.8531688252 L 188.333333333 0.00689708023604 L 190.0 15.5069353973 L 191.666666667 13.7240401563 L 193.333333333 13.1124990421 L 195.0 0.00574756686336 L 196.666666667 13.0032952717 L 198.333333333 13.8849720285 L 200.0 14.8804506092 L 201.666666667 14.0401563338 L 203.333333333 19.6463330523 L 205.0 15.6598206759 L 206.666666667 4.66242623956 L 208.333333333 14.9172350372 L 210.0 0.00574756686336 L 211.666666667 0.00459805349069 L 213.333333333 0.00574756686336 L 215.0 15.0574756686 L 216.666666667 14.9850563262 L 218.333333333 0.00574756686336 L 220.0 9.55015710016 L 221.666666667 11.2916698598 L 223.333333333 13.4895394283 L 225.0 15.2655375891 L 226.666666667 14.9620660587 L 228.333333333 17.3496053337 L 230.0 14.7632002452 L 231.666666667 15.1689784658 L 233.333333333 13.7309372366 L 235.0 13.1964135183 L 236.666666667 14.8103302935 L 238.333333333 7.37872633918 L 240.0 25.8583033183 L 241.666666667 17.3852402483 L 243.333333333 11.5790482029 L 245.0 12.9515671699 L 246.666666667 0.00344854011802 L 248.333333333 0.00229902674535 L 250.0 13.5539121772 L 251.666666667 14.8103302935 L 253.333333333 8.49030577056 L 255.0 0.203463866963 L 256.666666667 14.8172273737 L 258.333333333 16.7162234654 L 260.0 13.4033259254 L 261.666666667 13.8815234884 L 263.333333333 0.00459805349069 L 265.0 14.3114414898 L 266.666666667 18.1105831865 L 268.333333333 17.6139934095 L 270.0 14.7137711702 L 271.666666667 5.95332975707 L 273.333333333 13.3056172887 L 275.0 13.2400950264 L 276.666666667 13.6769101081 L 278.333333333 3.63476128439 L 280.0 15.5092344241 L 281.666666667 13.763123611 L 283.333333333 15.1390911181 L 285.0 14.9850563262 L 286.666666667 0.00229902674535 L 288.333333333 9.90075867883 L 290.0 13.24814162 L 291.666666667 15.505785884 L 293.333333333 15.1252969576 L 295.0 14.7792934324 L 296.666666667 13.0584719136 L 298.333333333 12.3457736225 L 300.0 14.580427619 L 301.666666667 5.32224691547 L 303.333333333 13.3918307916 L 305.0 14.3976549927 L 306.666666667 0.00574756686336 L 308.333333333 14.9678136256 L 310.0 14.5781285922 L 311.666666667 11.316959154 L 313.333333333 2.46685569775 L 315.0 16.3564257798 L 316.666666667 13.3584949038 L 318.333333333 13.9504942908 L 320.0 15.5103839375 L 321.666666667 14.8540118017 L 323.333333333 16.1253735918 L 325.0 2.0737221243 L 326.666666667 15.0356349146 L 328.333333333 17.5047896391 L 330.0 6.37405165147 L 331.666666667 14.7264158173 L 333.333333333 16.1311211587 L 335.0 10.4732163384 L 336.666666667 0.00229902674535 L 338.333333333 0.00804659360871 L 340.0 0.0747183692237 L 341.666666667 5.10154034792 L 343.333333333 7.159169285 L 345.0 14.4815694689 L 346.666666667 5.62916698598 L 348.333333333 12.8573070733 L 350.0 14.9459728715 L 351.666666667 9.46164457047 L 353.333333333 13.8068051192 L 355.0 15.4701509694 L 356.666666667 13.9286535367 L 358.333333333 0.00344854011802 L 360.0 12.7458042762 L 361.666666667 14.1183232432 L 363.333333333 14.990803893 L 365.0 13.0262855391 L 366.666666667 14.80573224 L 368.333333333 15.0965591233 L 370.0 16.2196336884 L 371.666666667 0.00459805349069 L 373.333333333 4.41528086443 L 375.0 11.7158402943 L 376.666666667 0.00574756686336 L 378.333333333 0.272434669323 L 380.0 7.61552609395 L 381.666666667 14.3240861369 L 383.333333333 14.6034178864 L 385.0 14.6448003678 L 386.666666667 13.4619511074 L 388.333333333 14.9666641122 L 390.0 16.4024063147 L 391.666666667 10.4214882366 L 393.333333333 1.06674840984 L 395.0 0.850639895777 L 396.666666667 14.0631466013 L 398.333333333 11.0525710782 L 400.0 13.4389608399 L 401.666666667 9.08345467086 L 403.333333333 13.9458962373 L 405.0 13.1619281171 L 406.666666667 11.2778756993 L 408.333333333 0.00689708023604 L 410.0 13.0527243467 L 411.666666667 8.28914093034 L 413.333333333 16.4070043682 L 415.0 1.05755230286 L 416.666666667 14.2941987892 L 418.333333333 14.9793087593 L 420.0 14.4930646027 L 421.666666667 15.0804659361 L 423.333333333 12.9136332286 L 425.0 14.2827036555 L 426.666666667 13.0124913786 L 428.333333333 15.0114951337 L 430.0 14.7528546249 L 431.666666667 0.00804659360871 L 433.333333333 16.9116407388 L 435.0 13.3642424707 L 436.666666667 9.61223082229 L 438.333333333 15.4414131351 L 440.0 13.988428232 L 441.666666667 6.21886734616 L 443.333333333 12.1204690015 L 445.0 16.4426392827 L 446.666666667 16.4909188444 L 448.333333333 16.4116024216 L 450.0 15.5517664189 L 451.666666667 16.8875009579 L 453.333333333 8.19028278029 L 455.0 2.12315119933 L 456.666666667 0.00804659360871 L 458.333333333 0.00574756686336 L 460.0 16.7392137329 L 461.666666667 11.4388075715 L 463.333333333 17.9818376887 L 465.0 15.2046133803 L 466.666666667 0.957544639436 L 468.333333333 0.00114951337267 L 470.0 14.2286765269 L 471.666666667 8.15924591923 L 473.333333333 14.6804352824 L 475.0 14.8310215342 L 476.666666667 13.3458502567 L 478.333333333 13.812552686 L 480.0 12.1928883439 L 481.666666667 15.9207602115 L 483.333333333 15.0287378343 L 485.0 21.4522185608 L 486.666666667 9.68694919151 L 488.333333333 14.3263851636 L 490.0 14.9367767645 L 491.666666667 0.00574756686336 L 493.333333333 12.4975093877 L 495.0 0.295424936777 L 496.666666667 15.1287454977 L 498.333333333 18.683040846" /></svg>