<?xml version="1.0" encoding="utf-8" ?>
<svg baseProfile="full" height="30px" version="1.1" width="500px" xmlns="http://www.w3.org/2000/svg" xmlns:ev="http://www.w3.org/2001/xml-events" xmlns:xlink="http://www.w3.org/1999/xlink"><defs /><style type="text/css"><![CDATA[svg {
  background-color: none;
}
.tile {
  fill: #ccc;
}
rect.waveform {
  fill: white;
  stroke-width: 0;
}
path.waveform {
  fill: none;
  stroke: black;
  stroke-width: 2;
}]]></style><path class="waveform" d="M 0 15 L 0.0 15.2309913378 L 1.66666666667 9.25120307988 L 3.33333333333 1.07122232916 L 5.0 14.896053898 L 6.66666666667 12.2569778633 L 8.33333333333 4.71799807507 L 10.0 1.83060635226 L 11.6666666667 14.3099133782 L 13.3333333333 13.6891241578 L 15.0 3.86910490857 L 16.6666666667 17.2001924928 L 18.3333333333 14.5495668912 L 20.0 13.8075072185 L 21.6666666667 2.94225216554 L 23.3333333333 6.71607314726 L 25.0 14.812319538 L 26.6666666667 15.2367661213 L 28.3333333333 9.00866217517 L 30.0 14.041385948 L 31.6666666667 4.10298363811 L 33.3333333333 10.9143407122 L 35.0 14.8671799808 L 36.6666666667 2.26948989413 L 38.3333333333 3.74783445621 L 40.0 14.3965351299 L 41.6666666667 10.0654475457 L 43.3333333333 6.75649663138 L 45.0 13.7699711261 L 46.6666666667 14.2897016362 L 48.3333333333 15.1068334937 L 50.0 4.14918190568 L 51.6666666667 12.4648700674 L 53.3333333333 13.6082771896 L 55.0 15.3031761309 L 56.6666666667 1.2155919153 L 58.3333333333 10.1924927815 L 60.0 14.468719923 L 61.6666666667 9.56881616939 L 63.3333333333 15.9730510106 L 65.0 5.16554379211 L 66.6666666667 3.35226179018 L 68.3333333333 15.5572666025 L 70.0 10.4263715111 L 71.6666666667 6.58036573628 L 73.3333333333 4.81905678537 L 75.0 14.5640038499 L 76.6666666667 15.3378248316 L 78.3333333333 3.07795957652 L 80.0 16.3830606352 L 81.6666666667 14.6650625602 L 83.3333333333 13.9143407122 L 85.0 0.805582290664 L 86.6666666667 5.5437921078 L 88.3333333333 16.8075072185 L 90.0 13.3079884504 L 91.6666666667 13.4292589028 L 93.3333333333 12.0259865255 L 95.0 0.785370548604 L 96.6666666667 13.4725697786 L 98.3333333333 13.5158806545 L 100.0 3.34071222329 L 101.666666667 1.92011549567 L 103.333333333 14.1337824832 L 105.0 12.0346487007 L 106.666666667 5.07314725698 L 108.333333333 16.7093358999 L 110.0 14.3070259865 L 111.666666667 14.2030798845 L 113.333333333 4.0250240616 L 115.0 8.94225216554 L 116.666666667 13.749759384 L 118.333333333 15.7218479307 L 120.0 5.34456207892 L 121.666666667 13.4234841193 L 123.333333333 8.42252165544 L 125.0 9.62656400385 L 126.666666667 15.5197305101 L 128.333333333 2.65928777671 L 130.0 4.50433108758 L 131.666666667 14.9364773821 L 133.333333333 9.5948026949 L 135.0 7.28200192493 L 136.666666667 10.2386910491 L 138.333333333 14.4542829644 L 140.0 15.5803657363 L 141.666666667 3.5948026949 L 143.333333333 14.4658325313 L 145.0 14.1135707411 L 146.666666667 14.6708373436 L 148.333333333 0.0 L 150.0 7.54764196343 L 151.666666667 16.8190567854 L 153.333333333 10.7786333013 L 155.0 15.6496631376 L 156.666666667 7.95476419634 L 158.333333333 1.66891241578 L 160.0 15.2656400385 L 161.666666667 11.676612127 L 163.333333333 5.34744947064 L 165.0 2.33301251203 L 166.666666667 14.4051973051 L 168.333333333 14.3243503369 L 170.0 3.47930702599 L 171.666666667 17.1049085659 L 173.333333333 14.624639076 L 175.0 13.7555341675 L 176.666666667 2.30991337825 L 178.333333333 6.04908565929 L 180.0 15.4359961501 L 181.666666667 14.8007699711 L 183.333333333 10.5245428296 L 185.0 13.7699711261 L 186.666666667 2.65351299326 L 188.333333333 11.6535129933 L 190.0 14.5235803657 L 191.666666667 2.42252165544 L 193.333333333 3.16746871992 L 195.0 14.2377285852 L 196.666666667 10.5332050048 L 198.333333333 6.35226179018 L 200.0 14.9595765159 L 201.666666667 14.2579403272 L 203.333333333 14.8267564966 L 205.0 4.27045235804 L 206.666666667 11.4571703561 L 208.333333333 13.5014436959 L 210.0 15.5370548604 L 211.666666667 2.17131857555 L 213.333333333 11.3416746872 L 215.0 12.8950914341 L 216.666666667 9.34359961501 L 218.333333333 15.9297401347 L 220.0 4.20115495669 L 221.666666667 3.96438883542 L 223.333333333 15.4504331088 L 225.0 10.0192492782 L 226.666666667 6.95861405197 L 228.333333333 6.3291626564 L 230.0 14.5611164581 L 231.666666667 15.5601539942 L 233.333333333 3.12127045236 L 235.0 15.9181905679 L 236.666666667 14.552454283 L 238.333333333 14.0760346487 L 240.0 0.326275264678 L 241.666666667 5.81520692974 L 243.333333333 17.1626564004 L 245.0 12.5457170356 L 246.666666667 14.3503368624 L 248.333333333 10.9114533205 L 250.0 0.687199230029 L 251.666666667 14.1539942252 L 253.333333333 13.010587103 L 255.0 3.89797882579 L 256.666666667 1.68623676612 L 258.333333333 14.1944177093 L 260.0 12.7593840231 L 261.666666667 4.52454282964 L 263.333333333 17.0529355149 L 265.0 14.416746872 L 266.666666667 13.9836381136 L 268.333333333 3.65255052936 L 270.0 7.89990375361 L 271.666666667 14.125120308 L 273.333333333 15.6063522618 L 275.0 6.89509143407 L 276.666666667 13.8970163619 L 278.333333333 6.46487006737 L 280.0 10.0856592878 L 281.666666667 15.2598652551 L 283.333333333 2.36188642926 L 285.0 4.31953801732 L 286.666666667 14.6823869105 L 288.333333333 9.68431183831 L 290.0 7.14629451396 L 291.666666667 11.864292589 L 293.333333333 14.3618864293 L 295.0 15.4244465833 L 296.666666667 3.84600577478 L 298.333333333 13.6804619827 L 300.0 13.8710298364 L 301.666666667 14.9509143407 L 303.333333333 0.311838306064 L 305.0 8.61886429259 L 306.666666667 16.0596727623 L 308.333333333 10.1578440808 L 310.0 15.8950914341 L 311.666666667 6.69297401347 L 313.333333333 2.38787295476 L 315.0 15.4850818094 L 316.666666667 11.1020211742 L 318.333333333 5.92781520693 L 320.0 3.2021174206 L 321.666666667 14.5033686237 L 323.333333333 14.844080847 L 325.0 3.21944177093 L 326.666666667 16.8623676612 L 328.333333333 14.676612127 L 330.0 13.7641963426 L 331.666666667 1.64870067372 L 333.333333333 5.62175168431 L 335.0 16.0683349374 L 336.666666667 14.22906641 L 338.333333333 11.8902791145 L 340.0 13.2011549567 L 341.666666667 1.57362848893 L 343.333333333 12.4533205005 L 345.0 14.1222329163 L 346.666666667 2.72858517806 L 348.333333333 2.57844080847 L 350.0 14.1684311838 L 351.666666667 11.125120308 L 353.333333333 5.83253128008 L 355.0 15.8893166506 L 356.666666667 14.2550529355 L 358.333333333 14.5437921078 L 360.0 4.26179018287 L 361.666666667 10.3859480269 L 363.333333333 13.5158806545 L 365.0 15.6785370549 L 366.666666667 3.42155919153 L 368.333333333 12.3695861405 L 370.0 11.0558229066 L 371.666666667 9.31183830606 L 373.333333333 15.7767083734 L 375.0 3.40134744947 L 376.666666667 4.36573628489 L 378.333333333 15.2627526468 L 380.0 9.73917228104 L 381.666666667 7.17516843118 L 383.333333333 7.98941289702 L 385.0 14.5293551492 L 386.666666667 15.6496631376 L 388.333333333 3.28007699711 L 390.0 15.3638113571 L 391.666666667 14.4138594803 L 393.333333333 14.2954764196 L 395.0 0.0115495668912 L 396.666666667 6.38691049086 L 398.333333333 17.2319538017 L 400.0 11.7718960539 L 401.666666667 15.051973051 L 403.333333333 9.66987487969 L 405.0 0.926852743022 L 406.666666667 14.7170356112 L 408.333333333 12.4533205005 L 410.0 4.51299326275 L 411.666666667 1.73820981713 L 413.333333333 14.2781520693 L 415.0 13.45813282 L 416.666666667 4.01636188643 L 418.333333333 17.1857555342 L 420.0 14.5033686237 L 421.666666667 13.8363811357 L 423.333333333 3.13859480269 L 425.0 6.9874879692 L 426.666666667 14.624639076 L 428.333333333 15.3522617902 L 430.0 8.49470644851 L 431.666666667 14.0702598653 L 433.333333333 4.645813282 L 435.0 10.6717998075 L 436.666666667 14.968238691 L 438.333333333 2.27237728585 L 440.0 3.92107795958 L 441.666666667 14.4658325313 L 443.333333333 9.93551491819 L 445.0 6.89509143407 L 446.666666667 13.3310875842 L 448.333333333 14.2983638114 L 450.0 15.1934552454 L 451.666666667 4.08277189605 L 453.333333333 12.7940327238 L 455.0 13.6804619827 L 456.666666667 15.2252165544 L 458.333333333 0.929740134745 L 460.0 9.78825794033 L 461.666666667 14.9364773821 L 463.333333333 9.6958614052 L 465.0 15.9759384023 L 466.666666667 5.51780558229 L 468.333333333 3.12127045236 L 470.0 15.5659287777 L 471.666666667 10.5880654475 L 473.333333333 6.44465832531 L 475.0 4.36862367661 L 476.666666667 14.5437921078 L 478.333333333 15.2425409047 L 480.0 3.08373435996 L 481.666666667 16.5216554379 L 483.333333333 14.6794995188 L 485.0 13.8594802695 L 486.666666667 1.00192492782 L 488.333333333 5.52069297401 L 490.0 16.6487006737 L 491.666666667 13.5505293551 L 493.333333333 13.0827718961 L 495.0 12.3609239654 L 496.666666667 0.932627526468 L 498.333333333 13.2213666987" /></svg>