<?xml version="1.0" encoding="utf-8" ?>
<svg baseProfile="full" height="30px" version="1.1" width="500px" xmlns="http://www.w3.org/2000/svg" xmlns:ev="http://www.w3.org/2001/xml-events" xmlns:xlink="http://www.w3.org/1999/xlink"><defs /><style type="text/css"><![CDATA[svg {
  background-color: none;
}
.tile {
  fill: #ccc;
}
rect.waveform {
  fill: white;
  stroke-width: 0;
}
path.waveform {
  fill: none;
  stroke: black;
  stroke-width: 2;
}]]></style><path class="waveform" d="M 0 15 L 0.0 15.0 L 1.66666666667 15.0009868746 L 3.33333333333 2.73166880489 L 5.0 7.37145958749 L 6.66666666667 3.17230829962 L 8.33333333333 12.4824829764 L 10.0 12.0783578407 L 11.6666666667 9.36938715089 L 13.3333333333 8.69091088523 L 15.0 11.9263791572 L 16.6666666667 11.4235665647 L 18.3333333333 2.30632586598 L 20.0 8.67018651929 L 21.6666666667 5.46432448436 L 23.3333333333 5.52255008388 L 25.0 5.42632981348 L 26.6666666667 8.89470048357 L 28.3333333333 8.07263396822 L 30.0 10.8348958847 L 31.6666666667 10.8536465015 L 33.3333333333 11.7931510905 L 35.0 9.02940886213 L 36.6666666667 4.45228461463 L 38.3333333333 10.2447448929 L 40.0 5.03750123359 L 41.6666666667 15.0 L 43.3333333333 15.0004934373 L 45.0 15.0024671864 L 46.6666666667 15.0 L 48.3333333333 14.9995065627 L 50.0 15.0 L 51.6666666667 15.0 L 53.3333333333 4.66544952137 L 55.0 14.4769564788 L 56.6666666667 4.85443600118 L 58.3333333333 12.8199940788 L 60.0 3.88187111418 L 61.6666666667 4.75870916806 L 63.3333333333 11.8059804599 L 65.0 14.2095134708 L 66.6666666667 4.5401164512 L 68.3333333333 5.71252343827 L 70.0 11.6199546038 L 71.6666666667 4.89045692293 L 73.3333333333 11.6510411527 L 75.0 10.6291325373 L 76.6666666667 14.063949472 L 78.3333333333 5.23191552354 L 80.0 15.0004934373 L 81.6666666667 15.0004934373 L 83.3333333333 14.9990131254 L 85.0 15.0004934373 L 86.6666666667 14.9995065627 L 88.3333333333 15.0004934373 L 90.0 15.0009868746 L 91.6666666667 14.9975328136 L 93.3333333333 15.0009868746 L 95.0 14.9990131254 L 96.6666666667 9.49323990921 L 98.3333333333 7.28066712721 L 100.0 5.66564689628 L 101.666666667 8.94256390013 L 103.333333333 5.24425145564 L 105.0 14.2766209415 L 106.666666667 13.7387743018 L 108.333333333 7.24069870719 L 110.0 5.37846639692 L 111.666666667 11.9401954012 L 113.333333333 6.13243856706 L 115.0 7.12819500641 L 116.666666667 5.30839830258 L 118.333333333 7.18395341952 L 120.0 6.98608506859 L 121.666666667 4.98569031876 L 123.333333333 3.05536366328 L 125.0 6.67867364058 L 126.666666667 13.6489687161 L 128.333333333 5.69229250962 L 130.0 10.3054376789 L 131.666666667 7.37047271292 L 133.333333333 12.7183459982 L 135.0 7.82591532616 L 136.666666667 3.2349748347 L 138.333333333 10.1238527583 L 140.0 12.9537155827 L 141.666666667 4.27958156518 L 143.333333333 10.5141616501 L 145.0 9.11773413599 L 146.666666667 13.3894207046 L 148.333333333 7.22244152768 L 150.0 6.62587585118 L 151.666666667 8.34649166091 L 153.333333333 9.99605250173 L 155.0 4.57021612553 L 156.666666667 10.9000296062 L 158.333333333 10.0498371657 L 160.0 4.24306720616 L 161.666666667 7.78051909602 L 163.333333333 10.3898154545 L 165.0 9.96693970196 L 166.666666667 8.3529063456 L 168.333333333 13.3889272673 L 170.0 5.17961117142 L 171.666666667 8.30306917991 L 173.333333333 11.3653409652 L 175.0 10.5694266259 L 176.666666667 8.92973453074 L 178.333333333 13.1027336426 L 180.0 12.9848021316 L 181.666666667 13.4318563111 L 183.333333333 12.9078259153 L 185.0 4.83420507254 L 186.666666667 7.14645218593 L 188.333333333 13.1096417645 L 190.0 12.1637224909 L 191.666666667 5.61580973058 L 193.333333333 12.1025362676 L 195.0 12.8051909602 L 196.666666667 15.0300996743 L 198.333333333 6.91799072338 L 200.0 5.60939504589 L 201.666666667 4.66199546038 L 203.333333333 5.45297542682 L 205.0 7.17260436199 L 206.666666667 2.82394157703 L 208.333333333 15.3809335833 L 210.0 6.48031185236 L 211.666666667 5.7707490378 L 213.333333333 8.98105200829 L 215.0 6.98608506859 L 216.666666667 12.4587979868 L 218.333333333 5.05477153854 L 220.0 1.98509819402 L 221.666666667 4.20951347084 L 223.333333333 3.06917990723 L 225.0 8.64551465509 L 226.666666667 5.37797295964 L 228.333333333 6.92637915721 L 230.0 3.52166189677 L 231.666666667 5.45001480312 L 233.333333333 11.0001973749 L 235.0 9.86726537057 L 236.666666667 5.36909108852 L 238.333333333 8.37560446067 L 240.0 8.20783578407 L 241.666666667 9.78288759499 L 243.333333333 4.90871410244 L 245.0 10.3083983026 L 246.666666667 6.19214447844 L 248.333333333 11.8247310767 L 250.0 6.503996842 L 251.666666667 7.53478732853 L 253.333333333 2.00680943452 L 255.0 4.89489785848 L 256.666666667 9.94325471233 L 258.333333333 5.57288068686 L 260.0 9.77795322215 L 261.666666667 7.18790091779 L 263.333333333 8.70176650548 L 265.0 8.96328826606 L 266.666666667 8.09237145959 L 268.333333333 7.87032468173 L 270.0 5.94690614823 L 271.666666667 7.36948583835 L 273.333333333 11.8345998224 L 275.0 4.49323990921 L 276.666666667 13.810322708 L 278.333333333 15.2314220863 L 280.0 3.9277607816 L 281.666666667 12.1425046877 L 283.333333333 5.57830849699 L 285.0 11.9796703839 L 286.666666667 1.56518306523 L 288.333333333 12.6739366427 L 290.0 4.59488798974 L 291.666666667 6.13095825521 L 293.333333333 8.6356459094 L 295.0 6.1156616994 L 296.666666667 11.8094345209 L 298.333333333 10.4643244844 L 300.0 13.7358136781 L 301.666666667 3.88729892431 L 303.333333333 6.11664857397 L 305.0 5.17517023586 L 306.666666667 5.5437678871 L 308.333333333 4.32201717162 L 310.0 9.90822066515 L 311.666666667 12.3872495806 L 313.333333333 9.90575347873 L 315.0 4.2820487516 L 316.666666667 8.1540511201 L 318.333333333 4.779433534 L 320.0 4.56528175269 L 321.666666667 13.3617882167 L 323.333333333 7.36011052995 L 325.0 7.89154248495 L 326.666666667 8.09483864601 L 328.333333333 12.3201421099 L 330.0 10.8284812 L 331.666666667 5.54623507352 L 333.333333333 6.72555018257 L 335.0 5.84920556597 L 336.666666667 7.18296654495 L 338.333333333 7.37195302477 L 340.0 15.9834205073 L 341.666666667 13.6489687161 L 343.333333333 9.64225796901 L 345.0 9.3940590151 L 346.666666667 3.93170827988 L 348.333333333 6.78722984309 L 350.0 4.03187604855 L 351.666666667 10.8270008882 L 353.333333333 12.95420902 L 355.0 4.44044211981 L 356.666666667 6.64956084082 L 358.333333333 4.86479818415 L 360.0 6.55284713313 L 361.666666667 12.4558373631 L 363.333333333 3.08200927662 L 365.0 1.56666337708 L 366.666666667 15.210204283 L 368.333333333 13.2137570315 L 370.0 10.5467285108 L 371.666666667 3.90506266654 L 373.333333333 9.81594789302 L 375.0 4.70591137866 L 376.666666667 13.7180499359 L 378.333333333 14.5351820784 L 380.0 5.82552057633 L 381.666666667 9.54751801046 L 383.333333333 3.34353103721 L 385.0 13.9080232902 L 386.666666667 11.6372249087 L 388.333333333 10.404618573 L 390.0 13.6040659232 L 391.666666667 4.3753083983 L 393.333333333 8.01588868055 L 395.0 5.26300207244 L 396.666666667 13.2492845159 L 398.333333333 5.69130563505 L 400.0 6.06237047271 L 401.666666667 10.5862034935 L 403.333333333 9.32843185631 L 405.0 11.0840817132 L 406.666666667 13.6272574756 L 408.333333333 5.67995657752 L 410.0 3.97019638804 L 411.666666667 14.4739958551 L 413.333333333 8.39978288759 L 415.0 3.94256390013 L 416.666666667 13.3247804204 L 418.333333333 12.6754169545 L 420.0 7.66110727327 L 421.666666667 6.21138853252 L 423.333333333 9.29833218198 L 425.0 12.4222836278 L 426.666666667 5.64245534393 L 428.333333333 13.706207441 L 430.0 7.01470443107 L 431.666666667 11.8158492056 L 433.333333333 7.71883943551 L 435.0 4.53518207836 L 436.666666667 9.46955491957 L 438.333333333 6.34461659923 L 440.0 14.3649462153 L 441.666666667 6.57159774993 L 443.333333333 8.6356459094 L 445.0 6.88048948979 L 446.666666667 13.7540708576 L 448.333333333 7.35073522155 L 450.0 3.78120990822 L 451.666666667 2.73660317774 L 453.333333333 4.84654100464 L 455.0 7.80963189579 L 456.666666667 14.4157702556 L 458.333333333 1.5010362183 L 460.0 9.64620546729 L 461.666666667 5.8640086845 L 463.333333333 12.7227869338 L 465.0 8.62182966545 L 466.666666667 9.35902496793 L 468.333333333 11.9110826014 L 470.0 6.8084476463 L 471.666666667 5.42534293891 L 473.333333333 10.0409552946 L 475.0 5.7209118721 L 476.666666667 15.0009868746 L 478.333333333 14.9970393763 L 480.0 15.0004934373 L 481.666666667 15.0004934373 L 483.333333333 14.9990131254 L 485.0 14.9985196881 L 486.666666667 13.1915523537 L 488.333333333 1.7763568394e-15 L 490.0 11.4023487615 L 491.666666667 7.16717655186 L 493.333333333 5.16036711734 L 495.0 10.5299516431 L 496.666666667 3.39139445376 L 498.333333333 12.5757426231" /></svg>