<?xml version="1.0" encoding="utf-8" ?>
<svg baseProfile="full" height="30px" version="1.1" width="500px" xmlns="http://www.w3.org/2000/svg" xmlns:ev="http://www.w3.org/2001/xml-events" xmlns:xlink="http://www.w3.org/1999/xlink"><defs /><style type="text/css"><![CDATA[svg {
  background-color: none;
}
.tile {
  fill: #ccc;
}
rect.waveform {
  fill: white;
  stroke-width: 0;
}
path.waveform {
  fill: none;
  stroke: black;
  stroke-width: 2;
}]]></style><path class="waveform" d="M 0 15 L 0.0 14.9506542876 L 1.66666666667 11.582535273 L 3.33333333333 14.7296951532 L 5.0 16.5889319395 L 6.66666666667 21.3321514731 L 8.33333333333 6.77626288471 L 10.0 18.6005921485 L 11.6666666667 16.0406462461 L 13.3333333333 17.3488559105 L 15.0 17.6701513269 L 16.6666666667 8.48581767673 L 18.3333333333 14.5372468748 L 20.0 9.23751736238 L 21.6666666667 13.8458586154 L 23.3333333333 17.5369179034 L 25.0 9.45354192558 L 26.6666666667 17.5752979019 L 28.3333333333 5.57387235909 L 30.0 13.503180057 L 31.6666666667 1.81208421668 L 33.3333333333 5.7559032093 L 35.0 0.0361868557643 L 36.6666666667 1.40854594634 L 38.3333333333 27.7004898019 L 40.0 17.4387747642 L 41.6666666667 25.5133781709 L 43.3333333333 8.18042254551 L 45.0 22.8580305578 L 46.6666666667 12.771766942 L 48.3333333333 22.1518385847 L 50.0 16.3816799474 L 51.6666666667 11.2552087141 L 53.3333333333 11.8594195482 L 55.0 14.2691351707 L 56.6666666667 11.1663864318 L 58.3333333333 20.5683895022 L 60.0 11.0940127202 L 61.6666666667 17.2945756269 L 63.3333333333 4.25305212369 L 65.0 11.9679801155 L 66.6666666667 4.46688354412 L 68.3333333333 4.87590467139 L 70.0 1.87349221434 L 71.6666666667 2.94539074494 L 73.3333333333 22.8223919877 L 75.0 24.9300021931 L 76.6666666667 29.1753783171 L 78.3333333333 20.3194677974 L 80.0 29.3058703122 L 81.6666666667 5.18349294539 L 83.3333333333 21.2378463338 L 85.0 15.2873017033 L 86.6666666667 11.5156444185 L 88.3333333333 5.29589151254 L 90.0 27.9505080781 L 91.6666666667 12.5557423788 L 93.3333333333 29.1189048907 L 95.0 13.2087506397 L 96.6666666667 17.1388624899 L 98.3333333333 6.08597119672 L 100.0 16.489692229 L 101.666666667 3.86322099569 L 103.333333333 4.83259010162 L 105.0 5.17143066014 L 106.666666667 2.66028218437 L 108.333333333 17.7918707508 L 110.0 1.23748081 L 111.666666667 29.1808611741 L 113.333333333 8.29611082681 L 115.0 29.1825060311 L 116.666666667 4.96253381095 L 118.333333333 23.6782659551 L 120.0 10.2419767527 L 121.666666667 14.6162000146 L 123.333333333 12.2958549602 L 125.0 29.7752028657 L 126.666666667 5.24544922874 L 128.333333333 10.6378390233 L 130.0 13.6693106221 L 131.666666667 17.5380144747 L 133.333333333 8.89483880401 L 135.0 16.8120842167 L 136.666666667 5.30576065502 L 138.333333333 8.98091965787 L 140.0 16.4458293735 L 141.666666667 3.84348271072 L 143.333333333 16.4310256598 L 145.0 1.77315593245 L 146.666666667 9.5516850647 L 148.333333333 13.1796914979 L 150.0 29.1825060311 L 151.666666667 14.0273411799 L 153.333333333 25.1399956137 L 155.0 3.90818042255 L 156.666666667 16.8197602164 L 158.333333333 6.03114262739 L 160.0 25.1021639009 L 161.666666667 4.30184955041 L 163.333333333 7.48081000073 L 165.0 11.4542364208 L 166.666666667 11.0994955772 L 168.333333333 9.90149133709 L 170.0 16.3635865195 L 171.666666667 4.69935667812 L 173.333333333 7.31029315008 L 175.0 8.95076394473 L 176.666666667 4.85232838658 L 178.333333333 15.942503107 L 180.0 4.11598070034 L 181.666666667 11.7618246948 L 183.333333333 -1.7763568394e-15 L 185.0 29.1786680313 L 186.666666667 9.33785364427 L 188.333333333 27.4861100958 L 190.0 7.7993639886 L 191.666666667 17.2858030558 L 193.333333333 1.50778565685 L 195.0 10.6575773083 L 196.666666667 13.8195409021 L 198.333333333 8.11791797646 L 200.0 12.6686892317 L 201.666666667 8.44030996418 L 203.333333333 10.7694275897 L 205.0 24.531398494 L 206.666666667 4.90167409898 L 208.333333333 4.31171869289 L 210.0 8.11682140507 L 211.666666667 10.4157833175 L 213.333333333 10.0062139045 L 215.0 2.90152788947 L 216.666666667 6.71704802983 L 218.333333333 8.02416112289 L 220.0 10.3702756049 L 221.666666667 14.2313034579 L 223.333333333 27.0557058264 L 225.0 3.29684187441 L 226.666666667 23.4995248191 L 228.333333333 3.16909130784 L 230.0 13.6704071935 L 231.666666667 13.4160026318 L 233.333333333 9.69752905914 L 235.0 12.0573506835 L 236.666666667 7.96384969662 L 238.333333333 10.8823744426 L 240.0 21.8749543095 L 241.666666667 8.44414796403 L 243.333333333 19.9565026683 L 245.0 7.62720228087 L 246.666666667 17.4300021931 L 248.333333333 7.08604430148 L 250.0 15.2039622779 L 251.666666667 10.5468235982 L 253.333333333 2.63560932817 L 255.0 16.0713502449 L 256.666666667 0.686453688135 L 258.333333333 24.6514730609 L 260.0 9.76387162804 L 261.666666667 22.0465677316 L 263.333333333 12.394546385 L 265.0 16.1618173843 L 266.666666667 13.5585569121 L 268.333333333 7.2839754368 L 270.0 11.2425981431 L 271.666666667 8.32078368302 L 273.333333333 10.6597704511 L 275.0 18.6630967176 L 276.666666667 10.7502375905 L 278.333333333 19.7947583888 L 280.0 8.20509540171 L 281.666666667 21.8590540244 L 283.333333333 7.02299144674 L 285.0 15.4517874114 L 286.666666667 9.24135536223 L 288.333333333 2.37407705242 L 290.0 11.3528035675 L 291.666666667 1.31753052124 L 293.333333333 3.65542071789 L 295.0 5.61334892902 L 296.666666667 20.7136852109 L 298.333333333 11.8659989765 L 300.0 20.920937203 L 301.666666667 13.2537100665 L 303.333333333 7.9567219826 L 305.0 11.0868850062 L 306.666666667 12.5486146648 L 308.333333333 10.6082315959 L 310.0 24.8494041962 L 311.666666667 10.7727173039 L 313.333333333 20.6692740697 L 315.0 8.26321368521 L 316.666666667 21.0870677681 L 318.333333333 7.1847357263 L 320.0 14.2647488852 L 321.666666667 7.77140141823 L 323.333333333 3.35879815776 L 325.0 25.023210761 L 326.666666667 0.805979969296 L 328.333333333 5.32330579721 L 330.0 0.721543972513 L 331.666666667 17.0111119234 L 333.333333333 11.3665107098 L 335.0 22.2631405805 L 336.666666667 12.955990935 L 338.333333333 6.01140434242 L 340.0 12.4318298121 L 341.666666667 23.8438482345 L 343.333333333 15.2450837049 L 345.0 26.3983112801 L 346.666666667 13.7027560494 L 348.333333333 12.2870823891 L 350.0 11.2354704291 L 351.666666667 17.2117844872 L 353.333333333 9.91355362234 L 355.0 13.0771620733 L 356.666666667 5.37813436655 L 358.333333333 10.2650047518 L 360.0 28.0788069303 L 361.666666667 0.932633964471 L 363.333333333 8.07953797792 L 365.0 0.387637985233 L 366.666666667 4.19986841143 L 368.333333333 0.440273411799 L 370.0 15.8926091089 L 371.666666667 12.5957672344 L 373.333333333 20.8375977776 L 375.0 15.033993713 L 376.666666667 13.7394911909 L 378.333333333 17.2430367717 L 380.0 23.6683968126 L 381.666666667 14.3996271657 L 383.333333333 10.917464727 L 385.0 12.7794429417 L 386.666666667 14.0103443234 L 388.333333333 7.69299656408 L 390.0 16.7424519336 L 391.666666667 7.10468601506 L 393.333333333 12.2487023905 L 395.0 24.1887199357 L 396.666666667 1.01816653264 L 398.333333333 11.6675195555 L 400.0 0.426017983771 L 401.666666667 5.01955552306 L 403.333333333 1.00116967615 L 405.0 5.83759777762 L 406.666666667 12.6993932305 L 408.333333333 15.7220922582 L 410.0 14.1814094598 L 411.666666667 9.81376562614 L 413.333333333 18.5792090065 L 415.0 12.1889392499 L 416.666666667 16.5615176548 L 418.333333333 16.4255428028 L 420.0 14.9808100007 L 421.666666667 9.74851962863 L 423.333333333 13.8326997588 L 425.0 11.1652898604 L 426.666666667 10.597265882 L 428.333333333 11.117589005 L 430.0 16.9924702098 L 431.666666667 6.49554060969 L 433.333333333 21.6150668909 L 435.0 4.33858469186 L 436.666666667 6.75159002851 L 438.333333333 0.827363111339 L 440.0 5.90065063236 L 441.666666667 0.689743402295 L 443.333333333 13.6468309087 L 445.0 25.5144747423 L 446.666666667 17.8604064625 L 448.333333333 22.0016083047 L 450.0 7.56853571167 L 451.666666667 20.0634183785 L 453.333333333 16.6624022224 L 455.0 20.2635426566 L 456.666666667 18.3670224432 L 458.333333333 9.95412676365 L 460.0 14.4889977338 L 461.666666667 16.3252065209 L 463.333333333 11.9926529717 L 465.0 18.589078149 L 466.666666667 9.41571021273 L 468.333333333 17.372980481 L 470.0 5.18075151692 L 471.666666667 12.0650266832 L 473.333333333 2.20520505885 L 475.0 4.81943124497 L 476.666666667 2.17998391695 L 478.333333333 3.0479201696 L 480.0 28.61228891 L 481.666666667 14.3129980262 L 483.333333333 27.238833248 L 485.0 12.3018861028 L 486.666666667 26.3418378536 L 488.333333333 8.23525111485 L 490.0 19.4800424008 L 491.666666667 15.9255062505 L 493.333333333 11.2168287155 L 495.0 12.6615615177 L 496.666666667 28.8392791871 L 498.333333333 12.9324146502" /></svg>