<?xml version="1.0" encoding="UTF-8" standalone="no"?>
<svg
   xmlns:dc="http://purl.org/dc/elements/1.1/"
   xmlns:cc="http://creativecommons.org/ns#"
   xmlns:rdf="http://www.w3.org/1999/02/22-rdf-syntax-ns#"
   xmlns:svg="http://www.w3.org/2000/svg"
   xmlns="http://www.w3.org/2000/svg"
   xmlns:sodipodi="http://sodipodi.sourceforge.net/DTD/sodipodi-0.dtd"
   xmlns:inkscape="http://www.inkscape.org/namespaces/inkscape"
   height="100"
   id="Layer_1"
   version="1.1"
   viewBox="0 0 140 100"
   width="140"
   xml:space="preserve"
   inkscape:version="0.48.4 r9939"
   sodipodi:docname="nav-black.svg"
   inkscape:export-filename="/home/spiq/funktion.fm/public/images/nav.png"
   inkscape:export-xdpi="299.79645"
   inkscape:export-ydpi="299.79645"><metadata
     id="metadata9"><rdf:RDF><cc:Work
         rdf:about=""><dc:format>image/svg+xml</dc:format><dc:type
           rdf:resource="http://purl.org/dc/dcmitype/StillImage" /><dc:title></dc:title></cc:Work></rdf:RDF></metadata><defs
     id="defs7"><linearGradient
       id="linearGradient3784"><stop
         style="stop-color:#000000;stop-opacity:1;"
         offset="0"
         id="stop3786" /><stop
         id="stop3919"
         offset="0.61513281"
         style="stop-color:#3f3f3f;stop-opacity:0.74901961;" /><stop
         id="stop3917"
         offset="0.82419866"
         style="stop-color:#7f7f7f;stop-opacity:0.49803922;" /><stop
         style="stop-color:#ffffff;stop-opacity:0;"
         offset="1"
         id="stop3788" /></linearGradient></defs><sodipodi:namedview
     pagecolor="#000000"
     bordercolor="#666666"
     borderopacity="1"
     objecttolerance="10"
     gridtolerance="10"
     guidetolerance="10"
     inkscape:pageopacity="0"
     inkscape:pageshadow="2"
     inkscape:window-width="1317"
     inkscape:window-height="744"
     id="namedview5"
     showgrid="false"
     inkscape:zoom="1.84375"
     inkscape:cx="174.85618"
     inkscape:cy="-15.276924"
     inkscape:window-x="49"
     inkscape:window-y="24"
     inkscape:window-maximized="1"
     inkscape:current-layer="Layer_1" /><path
     inkscape:connector-curvature="0"
     d="M 10.026551,20.151046 H 129.69555 c 5.50478,0 9.97242,-4.467636 9.97242,-9.972412 0,-5.504783 -4.46764,-9.97241542 -9.97242,-9.97241542 H 10.026551 c -5.5047797,0 -9.9724262,4.46763242 -9.9724262,9.97241542 0,5.504776 4.4676465,9.972412 9.9724262,9.972412 z M 129.69555,40.095882 H 10.026551 c -5.5047797,0 -9.9724262,4.467656 -9.9724262,9.972416 0,5.504777 4.4676465,9.972431 9.9724262,9.972431 H 129.69555 c 5.50478,0 9.97242,-4.467654 9.97242,-9.972431 0,-5.50476 -4.46764,-9.972416 -9.97242,-9.972416 z m 0,39.88967 H 10.026551 c -5.5047797,0 -9.9724262,4.467649 -9.9724262,9.972424 0,5.504771 4.4676465,9.972416 9.9724262,9.972416 H 129.69555 c 5.50478,0 9.97242,-4.467645 9.97242,-9.972416 0,-5.504775 -4.46764,-9.972424 -9.97242,-9.972424 z"
     id="path3"
     style="fill:#313131;fill-opacity:1"
     inkscape:export-xdpi="1021.154"
     inkscape:export-ydpi="1021.154"
     inkscape:export-filename="/home/spiq/funktion.fm/public/images/nav.png" /></svg>