<?xml version="1.0" encoding="UTF-8" standalone="no"?>
<!-- Generator: Adobe Illustrator 16.0.0, SVG Export Plug-In . SVG Version: 6.00 Build 0)  -->

<svg
   xmlns:dc="http://purl.org/dc/elements/1.1/"
   xmlns:cc="http://creativecommons.org/ns#"
   xmlns:rdf="http://www.w3.org/1999/02/22-rdf-syntax-ns#"
   xmlns:svg="http://www.w3.org/2000/svg"
   xmlns="http://www.w3.org/2000/svg"
   xmlns:sodipodi="http://sodipodi.sourceforge.net/DTD/sodipodi-0.dtd"
   xmlns:inkscape="http://www.inkscape.org/namespaces/inkscape"
   version="1.1"
   id="Capa_1"
   x="0px"
   y="0px"
   width="100"
   height="100"
   viewBox="0 0 99.999997 99.999997"
   xml:space="preserve"
   inkscape:version="0.48.4 r9939"
   sodipodi:docname="vimeo-grey.svg"><metadata
     id="metadata40"><rdf:RDF><cc:Work
         rdf:about=""><dc:format>image/svg+xml</dc:format><dc:type
           rdf:resource="http://purl.org/dc/dcmitype/StillImage" /><dc:title /></cc:Work></rdf:RDF></metadata><defs
     id="defs38" /><sodipodi:namedview
     pagecolor="#ffffff"
     bordercolor="#666666"
     borderopacity="1"
     objecttolerance="10"
     gridtolerance="10"
     guidetolerance="10"
     inkscape:pageopacity="0"
     inkscape:pageshadow="2"
     inkscape:window-width="1317"
     inkscape:window-height="744"
     id="namedview36"
     showgrid="false"
     inkscape:zoom="1.5519201"
     inkscape:cx="134.33505"
     inkscape:cy="50.181749"
     inkscape:window-x="49"
     inkscape:window-y="24"
     inkscape:window-maximized="1"
     inkscape:current-layer="Capa_1" /><g
     id="g3"
     transform="matrix(0.21142649,0,0,0.21142649,4.5105414,5.1415779)"
     style="fill:#363636;fill-opacity:1"><path
       id="Vimeo"
       d="m 367.243,28.754 c -59.795,-1.951 -100.259,31.591 -121.447,100.664 10.912,-4.494 21.516,-6.762 31.858,-6.762 21.804,0 31.455,12.237 28.879,36.776 -1.278,14.86 -10.911,36.482 -28.879,64.858 -18.039,28.423 -31.513,42.61 -40.464,42.61 -11.621,0 -22.199,-21.958 -31.857,-65.82 -3.239,-12.918 -9.031,-45.812 -17.324,-98.765 C 180.234,53.269 159.689,30.353 126.282,33.574 112.15,34.873 90.98,47.815 62.726,72.308 42.113,91.032 21.228,109.761 0,128.471 l 20.225,26.112 c 19.303,-13.562 30.595,-20.311 33.731,-20.311 14.802,0 28.625,23.219 41.488,69.651 11.53,42.644 23.158,85.23 34.744,127.812 17.256,46.466 38.529,69.708 63.552,69.708 40.473,0 90.028,-38.065 148.469,-114.223 56.537,-72.909 85.725,-130.352 87.694,-172.341 2.595,-56.115 -18.29,-84.851 -62.66,-86.125 z"
       inkscape:connector-curvature="0"
       style="fill:#363636;fill-opacity:1" /></g><g
     id="g6"
     transform="matrix(0.21142649,0,0,0.21142649,4.5105414,5.1415779)"
     style="fill:#363636;fill-opacity:1" /><g
     id="g8"
     transform="matrix(0.21142649,0,0,0.21142649,4.5105414,5.1415779)"
     style="fill:#363636;fill-opacity:1" /><g
     id="g10"
     transform="matrix(0.21142649,0,0,0.21142649,4.5105414,5.1415779)"
     style="fill:#363636;fill-opacity:1" /><g
     id="g12"
     transform="matrix(0.21142649,0,0,0.21142649,4.5105414,5.1415779)"
     style="fill:#363636;fill-opacity:1" /><g
     id="g14"
     transform="matrix(0.21142649,0,0,0.21142649,4.5105414,5.1415779)"
     style="fill:#363636;fill-opacity:1" /><g
     id="g16"
     transform="matrix(0.21142649,0,0,0.21142649,4.5105414,5.1415779)"
     style="fill:#363636;fill-opacity:1" /><g
     id="g18"
     transform="matrix(0.21142649,0,0,0.21142649,4.5105414,5.1415779)"
     style="fill:#363636;fill-opacity:1" /><g
     id="g20"
     transform="matrix(0.21142649,0,0,0.21142649,4.5105414,5.1415779)"
     style="fill:#363636;fill-opacity:1" /><g
     id="g22"
     transform="matrix(0.21142649,0,0,0.21142649,4.5105414,5.1415779)"
     style="fill:#363636;fill-opacity:1" /><g
     id="g24"
     transform="matrix(0.21142649,0,0,0.21142649,4.5105414,5.1415779)"
     style="fill:#363636;fill-opacity:1" /><g
     id="g26"
     transform="matrix(0.21142649,0,0,0.21142649,4.5105414,5.1415779)"
     style="fill:#363636;fill-opacity:1" /><g
     id="g28"
     transform="matrix(0.21142649,0,0,0.21142649,4.5105414,5.1415779)"
     style="fill:#363636;fill-opacity:1" /><g
     id="g30"
     transform="matrix(0.21142649,0,0,0.21142649,4.5105414,5.1415779)"
     style="fill:#363636;fill-opacity:1" /><g
     id="g32"
     transform="matrix(0.21142649,0,0,0.21142649,4.5105414,5.1415779)"
     style="fill:#363636;fill-opacity:1" /><g
     id="g34"
     transform="matrix(0.21142649,0,0,0.21142649,4.5105414,5.1415779)"
     style="fill:#363636;fill-opacity:1" /></svg>